<?xml version="1.0" standalone="no"?>
<!DOCTYPE svg PUBLIC "-//W3C//DTD SVG 1.1//EN" "http://www.w3.org/Graphics/SVG/1.1/DTD/svg11.dtd" >
<svg xmlns="http://www.w3.org/2000/svg">
<metadata>Generated by IcoMoon</metadata>
<defs>
<font id="icomoon" horiz-adv-x="1024">
<font-face units-per-em="1024" ascent="960" descent="-64" />
<missing-glyph horiz-adv-x="1024" />
<glyph unicode="&#x20;" horiz-adv-x="512" d="" />
<glyph unicode="&#xe900;" glyph-name="checkmark" d="M512 960c-281.6 0-512-230.4-512-512s230.4-512 512-512c281.6 0 512 230.4 512 512s-230.4 512-512 512zM438.857 246.856l-182.857 182.861 58.514 54.855 124.343-124.344 270.626 270.629 58.516-58.514-329.143-325.487z" />
<glyph unicode="&#xe902;" glyph-name="fingerprint" d="M768 264.533c0-140.8-115.2-256-256-256s-256 115.2-256 256h-72.533c0-183.467 149.333-328.533 328.533-328.533 183.467 0 328.533 145.067 328.533 328.533v294.4h-72.533v-294.4zM256 631.467c0 140.8 115.2 256 256 256s256-115.2 256-256h72.533c0 179.2-145.067 328.533-328.533 328.533s-328.533-149.333-328.533-328.533v-294.4h72.533v294.4zM622.933 328.533c0-59.733-46.933-110.933-110.933-110.933-59.733 0-110.933 46.933-110.933 110.933v157.867h-72.533v-157.867c0-102.4 81.067-183.467 183.467-183.467s183.467 81.067 183.467 183.467v12.8h-72.533v-12.8zM512 750.933c-98.133 0-183.467-81.067-183.467-183.467v-12.8h72.533v12.8c0 59.733 46.933 110.933 110.933 110.933 59.733 0 110.933-46.933 110.933-110.933v-157.867h72.533v157.867c0 102.4-81.067 183.467-183.467 183.467zM512 302.933c-21.333 0-38.4 17.067-38.4 38.4v217.6c0 21.333 17.067 38.4 38.4 38.4s38.4-17.067 38.4-38.4v-217.6c0-25.6-17.067-38.4-38.4-38.4z" />
<glyph unicode="&#xe904;" glyph-name="newspaper-2" d="M768 814.933v145.067h-729.6v-878.933c0-81.067 64-145.067 145.067-145.067h657.067c81.067 0 145.067 64 145.067 145.067v733.867h-217.6zM183.467 8.533c-38.4 0-72.533 34.133-72.533 72.533v806.4h584.533v-806.4c0-25.6 8.533-51.2 21.333-72.533h-533.333zM913.067 81.067c0-38.4-34.133-72.533-72.533-72.533s-72.533 34.133-72.533 72.533v661.333h145.067v-661.333zM332.8 742.4v-72.533h-72.533v72.533h72.533zM371.2 814.933h-149.333c-21.333 0-34.133-17.067-34.133-34.133v-145.067c0-21.333 17.067-34.133 34.133-34.133h145.067c21.333 0 34.133 17.067 34.133 34.133v140.8c4.267 21.333-12.8 38.4-29.867 38.4zM588.8 742.4h-72.533c-21.333 0-38.4 17.067-38.4 38.4s17.067 38.4 38.4 38.4h72.533c21.333 0 38.4-17.067 38.4-38.4 0-25.6-17.067-38.4-38.4-38.4zM588.8 593.067h-72.533c-21.333 0-38.4 17.067-38.4 38.4s17.067 38.4 38.4 38.4h72.533c21.333 0 38.4-17.067 38.4-38.4s-17.067-38.4-38.4-38.4zM588.8 448h-366.933c-21.333 0-38.4 17.067-38.4 38.4s17.067 38.4 38.4 38.4h366.933c21.333 0 38.4-17.067 38.4-38.4s-17.067-38.4-38.4-38.4zM580.267 302.933h-362.667c-21.333 0-38.4 17.067-38.4 38.4s17.067 38.4 38.4 38.4h366.933c21.333 0 38.4-17.067 38.4-38.4-4.267-21.333-21.333-38.4-42.667-38.4zM588.8 153.6h-366.933c-21.333 0-38.4 17.067-38.4 38.4s17.067 38.4 38.4 38.4h366.933c21.333 0 38.4-17.067 38.4-38.4s-17.067-38.4-38.4-38.4z" />
<glyph unicode="&#xe905;" glyph-name="shield" d="M512-64h-4.267c-469.333 85.333-473.6 878.933-473.6 913.067 0 17.067 12.8 29.867 29.867 29.867 281.6 0 430.933 76.8 430.933 76.8 8.533 4.267 21.333 4.267 29.867 0 0 0 153.6-76.8 435.2-76.8 17.067 0 29.867-12.8 29.867-29.867 0-34.133-4.267-827.733-473.6-913.067h-4.267zM98.133 814.933c4.267-145.067 51.2-742.4 413.867-814.933 362.667 72.533 409.6 669.867 413.867 814.933-230.4 4.267-371.2 59.733-413.867 76.8-42.667-17.067-183.467-72.533-413.867-76.8zM456.533 362.667c-8.533 0-17.067 4.267-21.333 8.533l-72.533 68.267c-12.8 12.8-12.8 34.133 0 46.933s34.133 12.8 46.933 0l51.2-46.933 157.867 149.333c12.8 12.8 34.133 12.8 46.933 0s12.8-34.133 0-46.933l-179.2-170.667c-12.8-4.267-21.333-8.533-29.867-8.533z" />
<glyph unicode="&#xe906;" glyph-name="user-2" d="M512 823.467c85.333 0 157.867-72.533 157.867-157.867s-72.533-157.867-157.867-157.867-157.867 68.267-157.867 157.867 72.533 157.867 157.867 157.867zM512 900.267c-132.267 0-234.667-106.667-234.667-234.667s106.667-234.667 234.667-234.667 234.667 106.667 234.667 234.667-102.4 234.667-234.667 234.667zM985.6-4.267c-8.533 0-21.333 4.267-29.867 12.8-153.6 157.867-311.467 230.4-469.333 221.867-243.2-12.8-413.867-217.6-413.867-221.867-12.8-17.067-38.4-21.333-55.467-4.267-17.067 12.8-21.333 38.4-4.267 55.467 8.533 8.533 192 234.667 473.6 251.733 179.2 8.533 358.4-76.8 524.8-247.467 17.067-17.067 12.8-38.4 0-55.467-8.533-8.533-17.067-12.8-25.6-12.8z" />
<glyph unicode="&#xe907;" glyph-name="user-add" d="M413.867 750.933c72.533 0 128-55.467 128-128s-55.467-128-128-128-128 55.467-128 128 59.733 128 128 128zM413.867 814.933c-106.667 0-192-85.333-192-192s85.333-192 192-192 192 85.333 192 192-85.333 192-192 192zM29.867 81.067c-8.533 0-12.8 4.267-21.333 8.533-12.8 12.8-17.067 29.867-4.267 46.933 4.267 8.533 157.867 192 384 204.8 149.333 8.533 294.4-59.733 430.933-200.533 12.8-12.8 12.8-34.133 0-46.933s-34.133-12.8-46.933 0c-123.733 128-251.733 187.733-384 183.467-200.533-8.533-337.067-179.2-337.067-179.2 0-12.8-8.533-17.067-21.333-17.067zM989.867 465.067h-256c-17.067 0-34.133 12.8-34.133 34.133 0 17.067 12.8 34.133 34.133 34.133h256c17.067 0 34.133-12.8 34.133-34.133s-12.8-34.133-34.133-34.133zM832 366.933v256c0 17.067 12.8 34.133 34.133 34.133 17.067 0 34.133-12.8 34.133-34.133v-256c0-17.067-12.8-34.133-34.133-34.133-21.333 4.267-34.133 17.067-34.133 34.133z" />
<glyph unicode="&#xe908;" glyph-name="add-box-filled" d="M843.853 874.667h-663.705c-25.146 0-49.263-9.99-67.044-27.77s-27.77-41.898-27.77-67.044v-663.705c0-25.143 9.99-49.263 27.77-67.042 17.781-17.783 41.898-27.772 67.044-27.772h663.705c52.147 0 94.814 42.667 94.814 94.814v663.705c0 52.148-42.667 94.815-94.814 94.815zM749.039 400.593h-189.632v-189.632h-94.814v189.632h-189.63v94.814h189.63v189.63h94.814v-189.63h189.632v-94.814z" />
<glyph unicode="&#xe909;" glyph-name="add-circular-filled" d="M512 874.667c-235.52 0-426.667-191.147-426.667-426.667s191.147-426.667 426.667-426.667c235.52 0 426.667 191.147 426.667 426.667s-191.147 426.667-426.667 426.667zM682.667 405.333h-128v-128c0-23.467-19.2-42.667-42.667-42.667s-42.667 19.2-42.667 42.667v128h-128c-23.467 0-42.667 19.2-42.667 42.667s19.2 42.667 42.667 42.667h128v128c0 23.467 19.2 42.667 42.667 42.667s42.667-19.2 42.667-42.667v-128h128c23.467 0 42.667-19.2 42.667-42.667s-19.2-42.667-42.667-42.667z" />
<glyph unicode="&#xe90a;" glyph-name="add-circular-outline" d="M512 661.333c-23.467 0-42.667-19.2-42.667-42.667v-128h-128c-23.467 0-42.667-19.2-42.667-42.667s19.2-42.667 42.667-42.667h128v-128c0-23.467 19.2-42.667 42.667-42.667s42.667 19.2 42.667 42.667v128h128c23.467 0 42.667 19.2 42.667 42.667s-19.2 42.667-42.667 42.667h-128v128c0 23.467-19.2 42.667-42.667 42.667zM512 874.667c-235.52 0-426.667-191.147-426.667-426.667s191.147-426.667 426.667-426.667c235.52 0 426.667 191.147 426.667 426.667s-191.147 426.667-426.667 426.667zM512 106.667c-188.16 0-341.333 153.173-341.333 341.333s153.173 341.333 341.333 341.333c188.16 0 341.333-153.173 341.333-341.333s-153.173-341.333-341.333-341.333z" />
<glyph unicode="&#xe90b;" glyph-name="arrow-line-down" d="M258.715 283.895c1.792 4.318 4.419 8.239 7.73 11.541 3.303 3.311 7.226 5.939 11.545 7.731s8.95 2.718 13.626 2.718c4.676 0 9.307-0.926 13.626-2.718s8.242-4.42 11.545-7.731l152.592-152.649v696.326c0 9.429 3.746 18.472 10.415 25.14 6.665 6.668 15.71 10.413 25.139 10.413s18.47-3.746 25.139-10.413c6.669-6.668 10.415-15.71 10.415-25.14v-696.326l152.593 152.649c6.673 6.677 15.727 10.428 25.169 10.428s18.496-3.75 25.173-10.428c6.673-6.673 10.423-15.727 10.423-25.169s-3.75-18.496-10.423-25.173l-213.321-213.316c-3.302-3.311-7.223-5.939-11.541-7.731-4.322-1.792-8.951-2.714-13.628-2.714s-9.306 0.922-13.628 2.714c-4.318 1.792-8.243 4.42-11.546 7.731l-213.316 213.316c-3.311 3.302-5.937 7.228-7.73 11.546-1.792 4.322-2.715 8.951-2.715 13.628s0.922 9.306 2.715 13.628z" />
<glyph unicode="&#xe90c;" glyph-name="arrow-down-circle-fill" d="M512-64c-135.791 0-266.020 53.943-362.039 149.961-96.019 96.021-149.961 226.249-149.961 362.039s53.943 266.020 149.961 362.039c96.018 96.019 226.248 149.961 362.039 149.961s266.018-53.943 362.039-149.961c96.017-96.019 149.961-226.248 149.961-362.039s-53.943-266.018-149.961-362.039c-96.021-96.017-226.249-149.961-362.039-149.961zM342.656 470.656c-6.009 6.007-14.159 9.382-22.656 9.382s-16.647-3.375-22.656-9.382c-6.009-6.007-9.385-14.157-9.385-22.656s3.376-16.649 9.385-22.656l192-192c2.974-2.978 6.502-5.346 10.394-6.959 3.887-1.613 8.051-2.441 12.262-2.441s8.375 0.828 12.267 2.441c3.887 1.613 7.415 3.981 10.389 6.959l192 192c2.974 2.974 5.333 6.507 6.946 10.394 1.609 3.887 2.436 8.055 2.436 12.262s-0.828 8.375-2.436 12.262c-1.613 3.887-3.972 7.42-6.946 10.394s-6.507 5.333-10.394 6.946c-3.887 1.609-8.055 2.436-12.262 2.436s-8.375-0.828-12.262-2.436c-3.887-1.613-7.42-3.972-10.394-6.946l-137.344-137.408v306.752c0 8.487-3.371 16.626-9.374 22.627-5.999 6.001-14.14 9.373-22.626 9.373s-16.627-3.372-22.626-9.373c-6.003-6.001-9.374-14.141-9.374-22.627v-306.752l-137.344 137.408z" />
<glyph unicode="&#xe90d;" glyph-name="arrow-line-left" d="M347.894 208.866c4.319 1.792 8.242 4.42 11.545 7.731 3.311 3.302 5.937 7.223 7.73 11.546 1.792 4.318 2.715 8.947 2.715 13.623s-0.922 9.31-2.715 13.628c-1.792 4.318-4.419 8.243-7.73 11.546l-152.651 152.593h696.325c9.429 0 18.475 3.746 25.139 10.411 6.669 6.669 10.415 15.714 10.415 25.143 0 9.425-3.746 18.47-10.415 25.139-6.665 6.665-15.71 10.411-25.139 10.411h-696.325l152.651 152.594c6.676 6.676 10.426 15.73 10.426 25.171s-3.75 18.496-10.426 25.172c-6.676 6.676-15.73 10.426-25.172 10.426s-18.496-3.75-25.172-10.426l-213.318-213.318c-3.311-3.302-5.937-7.223-7.73-11.546-1.792-4.318-2.715-8.947-2.715-13.623 0-4.681 0.922-9.31 2.715-13.628s4.419-8.243 7.73-11.546l213.318-213.316c3.303-3.311 7.226-5.939 11.546-7.731s8.95-2.714 13.626-2.714c4.676 0 9.307 0.922 13.626 2.714z" />
<glyph unicode="&#xe90e;" glyph-name="arrow-left-circle-fill" d="M0 448c0-135.791 53.943-266.018 149.961-362.039 96.018-96.017 226.248-149.961 362.039-149.961s266.018 53.943 362.039 149.961c96.017 96.021 149.961 226.249 149.961 362.039s-53.943 266.020-149.961 362.039c-96.021 96.019-226.249 149.961-362.039 149.961s-266.020-53.943-362.039-149.961c-96.019-96.019-149.961-226.248-149.961-362.039zM534.656 278.656c6.007-6.007 9.382-14.157 9.382-22.656s-3.375-16.649-9.382-22.656c-6.007-6.007-14.157-9.382-22.656-9.382s-16.649 3.375-22.656 9.382l-192 192c-2.98 2.974-5.344 6.502-6.958 10.394-1.613 3.887-2.444 8.051-2.444 12.262s0.83 8.375 2.444 12.267c1.613 3.887 3.977 7.415 6.958 10.389l192 192c2.974 2.975 6.507 5.335 10.394 6.946s8.055 2.439 12.262 2.439c4.207 0 8.375-0.829 12.262-2.439s7.42-3.971 10.394-6.946c2.974-2.975 5.333-6.508 6.946-10.394 1.609-3.887 2.436-8.054 2.436-12.262s-0.828-8.374-2.436-12.262c-1.613-3.887-3.972-7.419-6.946-10.394l-137.408-137.344h306.752c8.486 0 16.627-3.371 22.626-9.374 6.003-5.999 9.374-14.14 9.374-22.626s-3.371-16.627-9.374-22.626c-5.999-6.003-14.14-9.374-22.626-9.374h-306.752l137.408-137.344z" />
<glyph unicode="&#xe90f;" glyph-name="arrow-line-right" d="M676.105 701.285c-4.318-1.792-8.239-4.419-11.541-7.73-3.311-3.303-5.939-7.226-7.731-11.545s-2.718-8.95-2.718-13.626c0-4.676 0.926-9.307 2.718-13.626s4.42-8.242 7.731-11.545l152.649-152.592h-696.326c-9.429 0-18.472-3.746-25.14-10.415-6.668-6.665-10.413-15.71-10.413-25.139s3.746-18.47 10.413-25.139c6.668-6.669 15.71-10.415 25.14-10.415h696.326l-152.649-152.593c-6.677-6.673-10.428-15.727-10.428-25.169s3.75-18.496 10.428-25.173c6.673-6.673 15.727-10.423 25.169-10.423s18.496 3.75 25.173 10.423l213.316 213.321c3.311 3.302 5.939 7.223 7.731 11.541 1.792 4.322 2.714 8.951 2.714 13.628s-0.922 9.306-2.714 13.628c-1.792 4.318-4.42 8.243-7.731 11.546l-213.316 213.316c-3.302 3.311-7.228 5.937-11.546 7.73-4.322 1.792-8.951 2.715-13.628 2.715s-9.306-0.922-13.628-2.715z" />
<glyph unicode="&#xe910;" glyph-name="arrow-right-circle-fill" d="M1024 448c0-135.791-53.943-266.018-149.961-362.039-96.021-96.017-226.249-149.961-362.039-149.961s-266.020 53.943-362.039 149.961c-96.019 96.021-149.961 226.249-149.961 362.039s53.943 266.020 149.961 362.039c96.019 96.019 226.248 149.961 362.039 149.961s266.018-53.943 362.039-149.961c96.017-96.019 149.961-226.248 149.961-362.039zM489.344 278.656c-6.007-6.007-9.382-14.157-9.382-22.656s3.375-16.649 9.382-22.656c6.007-6.007 14.157-9.382 22.656-9.382s16.649 3.375 22.656 9.382l192 192c2.978 2.974 5.346 6.502 6.959 10.394 1.613 3.887 2.441 8.051 2.441 12.262s-0.828 8.375-2.441 12.267c-1.613 3.887-3.981 7.415-6.959 10.389l-192 192c-2.974 2.975-6.507 5.335-10.394 6.946s-8.055 2.439-12.262 2.439c-4.207 0-8.375-0.829-12.262-2.439s-7.42-3.971-10.394-6.946c-2.974-2.975-5.333-6.508-6.946-10.394-1.609-3.887-2.436-8.054-2.436-12.262s0.828-8.374 2.436-12.262c1.613-3.887 3.972-7.419 6.946-10.394l137.408-137.344h-306.752c-8.487 0-16.626-3.371-22.627-9.374-6.001-5.999-9.373-14.14-9.373-22.626s3.372-16.627 9.373-22.626c6.001-6.003 14.141-9.374 22.627-9.374h306.752l-137.408-137.344z" />
<glyph unicode="&#xe911;" glyph-name="arrow-line-up" d="M258.715 612.106c1.792-4.319 4.419-8.242 7.73-11.545 3.303-3.311 7.226-5.937 11.545-7.73s8.95-2.715 13.626-2.715c4.676 0 9.307 0.922 13.626 2.715s8.242 4.419 11.545 7.73l152.592 152.651v-696.325c0-9.429 3.746-18.475 10.415-25.139 6.665-6.669 15.71-10.415 25.139-10.415s18.47 3.746 25.139 10.415c6.669 6.665 10.415 15.71 10.415 25.139v696.325l152.593-152.651c6.673-6.676 15.727-10.426 25.169-10.426s18.496 3.75 25.173 10.426c6.673 6.676 10.423 15.73 10.423 25.172s-3.75 18.496-10.423 25.172l-213.321 213.318c-3.302 3.311-7.223 5.937-11.541 7.73-4.322 1.792-8.951 2.715-13.628 2.715s-9.306-0.922-13.628-2.715c-4.318-1.792-8.243-4.419-11.546-7.73l-213.316-213.318c-3.311-3.303-5.937-7.226-7.73-11.546s-2.715-8.95-2.715-13.626c0-4.676 0.922-9.307 2.715-13.626z" />
<glyph unicode="&#xe912;" glyph-name="arrow-up-circle-fill" d="M512 960c-135.791 0-266.020-53.943-362.039-149.961s-149.961-226.248-149.961-362.039c0-135.791 53.943-266.018 149.961-362.039 96.018-96.017 226.248-149.961 362.039-149.961s266.018 53.943 362.039 149.961c96.017 96.021 149.961 226.249 149.961 362.039s-53.943 266.020-149.961 362.039c-96.021 96.019-226.249 149.961-362.039 149.961zM342.656 425.344c-6.009-6.007-14.159-9.382-22.656-9.382s-16.647 3.375-22.656 9.382c-6.009 6.007-9.385 14.157-9.385 22.656s3.376 16.649 9.385 22.656l192 192c2.974 2.98 6.502 5.344 10.394 6.958 3.887 1.613 8.051 2.444 12.262 2.444s8.375-0.83 12.267-2.444c3.887-1.613 7.415-3.977 10.389-6.958l192-192c2.974-2.974 5.333-6.507 6.946-10.394 1.609-3.887 2.436-8.055 2.436-12.262s-0.828-8.375-2.436-12.262c-1.613-3.887-3.972-7.42-6.946-10.394s-6.507-5.333-10.394-6.946c-3.887-1.609-8.055-2.436-12.262-2.436s-8.375 0.828-12.262 2.436c-3.887 1.613-7.42 3.972-10.394 6.946l-137.344 137.408v-306.752c0-8.486-3.371-16.627-9.374-22.626-5.999-6.003-14.14-9.374-22.626-9.374s-16.627 3.371-22.626 9.374c-6.003 5.999-9.374 14.14-9.374 22.626v306.752l-137.344-137.408z" />
<glyph unicode="&#xe913;" glyph-name="checkbox-active" d="M207.238 874.667c-32.331 0-63.338-12.844-86.199-35.705s-35.705-53.868-35.705-86.199v-609.526c0-32.329 12.844-63.334 35.705-86.199 22.862-22.861 53.868-35.703 86.199-35.703h609.526c32.329 0 63.334 12.843 86.199 35.703 22.861 22.865 35.703 53.871 35.703 86.199v609.526c0 32.331-12.843 63.338-35.703 86.199-22.865 22.862-53.871 35.705-86.199 35.705h-609.526zM451.046 239.91l-164.997 164.996 86.187 86.187 78.81-78.81 231.194 231.191 86.187-86.187-317.38-317.377z" />
<glyph unicode="&#xe915;" glyph-name="checkmark-1" d="M805.065 766.496c14.63 14.577 34.381 22.78 54.98 22.837s40.397-8.037 55.104-22.532c14.711-14.496 23.155-34.227 23.505-54.929 0.354-20.703-7.415-40.712-21.628-55.703l-417.327-524.316c-7.172-7.765-15.825-13.995-25.451-18.321-9.621-4.326-20.015-6.656-30.554-6.852-10.543-0.196-21.012 1.745-30.788 5.709-9.776 3.968-18.656 9.873-26.109 17.365l-276.509 278.020c-7.703 7.215-13.882 15.915-18.167 25.583s-6.589 20.1-6.775 30.682c-0.186 10.581 1.751 21.094 5.694 30.908 3.944 9.809 9.813 18.726 17.258 26.206 7.445 7.484 16.314 13.384 26.077 17.347s20.22 5.91 30.747 5.723c10.528-0.186 20.91-2.503 30.528-6.81s18.274-10.518 25.452-18.258l218.908-219.921 363.068 464.95c0.649 0.814 1.348 1.586 2.091 2.312h-0.102z" />
<glyph unicode="&#xe919;" glyph-name="close-circular-filled" d="M572.331 448l120.704 120.661c3.964 3.964 7.108 8.67 9.254 13.85s3.251 10.731 3.251 16.337c0 5.606-1.105 11.157-3.251 16.337s-5.291 9.885-9.254 13.85c-3.964 3.964-8.67 7.109-13.85 9.254s-10.731 3.25-16.337 3.25c-5.606 0-11.157-1.104-16.337-3.25s-9.886-5.29-13.85-9.254l-120.661-120.704-120.661 120.704c-8.006 8.006-18.865 12.504-30.187 12.504s-22.181-4.498-30.187-12.504c-8.006-8.006-12.504-18.865-12.504-30.187 0-5.606 1.104-11.157 3.25-16.337s5.29-9.885 9.254-13.85l120.704-120.661-120.704-120.661c-8.006-8.004-12.504-18.863-12.504-30.187s4.498-22.182 12.504-30.187c8.006-8.004 18.865-12.506 30.187-12.506s22.181 4.501 30.187 12.506l120.661 120.704 120.661-120.704c8.004-8.004 18.863-12.506 30.187-12.506s22.182 4.501 30.187 12.506c8.004 8.004 12.506 18.863 12.506 30.187s-4.501 22.182-12.506 30.187l-120.704 120.661zM512 21.333c-235.648 0-426.667 191.019-426.667 426.667s191.019 426.667 426.667 426.667c235.648 0 426.667-191.019 426.667-426.667s-191.019-426.667-426.667-426.667z" />
<glyph unicode="&#xe91a;" glyph-name="close-circular-outline" d="M572.331 448l120.704-120.661c8.004-8.004 12.506-18.863 12.506-30.187s-4.501-22.182-12.506-30.187c-8.004-8.004-18.863-12.506-30.187-12.506s-22.182 4.501-30.187 12.506l-120.661 120.704-120.661-120.704c-8.006-8.004-18.865-12.506-30.187-12.506s-22.181 4.501-30.187 12.506c-8.006 8.004-12.504 18.863-12.504 30.187 0 5.606 1.104 11.157 3.25 16.337s5.29 9.886 9.254 13.85l120.704 120.661-120.704 120.661c-8.006 8.006-12.504 18.865-12.504 30.187 0 5.606 1.104 11.157 3.25 16.337s5.29 9.885 9.254 13.85c3.964 3.964 8.67 7.109 13.85 9.254s10.731 3.25 16.337 3.25c11.322 0 22.181-4.498 30.187-12.504l120.661-120.704 120.661 120.704c8.004 8.006 18.863 12.504 30.187 12.504s22.182-4.498 30.187-12.504c8.004-8.006 12.506-18.865 12.506-30.187s-4.501-22.181-12.506-30.187l-120.704-120.661zM512 21.333c-235.648 0-426.667 191.019-426.667 426.667s191.019 426.667 426.667 426.667c235.648 0 426.667-191.019 426.667-426.667s-191.019-426.667-426.667-426.667zM512 106.667c90.526 0 177.348 35.964 241.361 99.972 64.009 64.013 99.972 150.835 99.972 241.361 0 90.527-35.964 177.347-99.972 241.359-64.013 64.013-150.835 99.974-241.361 99.974-90.527 0-177.347-35.962-241.359-99.974s-99.974-150.832-99.974-241.359c0-90.526 35.962-177.348 99.974-241.361 64.012-64.009 150.832-99.972 241.359-99.972z" />
<glyph unicode="&#xe91b;" glyph-name="dashboard-outline" d="M924.8 574.4c-22.49 53.229-55.091 101.589-96 142.4-40.811 40.909-89.169 73.512-142.4 96-55.3 23.4-113.899 35.2-174.4 35.2s-119.1-11.8-174.4-35.2c-53.229-22.488-101.589-55.091-142.4-96-40.909-40.811-73.512-89.171-96-142.4-23.4-55.3-35.2-113.899-35.2-174.4 0-132.702 58.3-257.698 159.9-343.1l1.7-1.399c5.8-4.8 13.1-7.501 20.6-7.501h531.699c7.501 0 14.801 2.701 20.599 7.501l1.702 1.399c101.5 85.402 159.799 210.398 159.799 343.1 0 60.501-11.9 119.1-35.2 174.4zM761.399 123.998h-498.799c-38.641 34.842-69.523 77.419-90.644 124.966s-32.009 99.008-31.956 151.036c0 99.401 38.7 192.8 109 263 70.3 70.3 163.7 109 263 109 99.401 0 192.802-38.7 263.002-109 70.298-70.3 109.001-163.702 109.001-263 0-105.6-44.501-205.5-122.603-276.002zM623.501 538.5c-1.506 1.489-3.533 2.324-5.649 2.324s-4.147-0.835-5.653-2.324l-84.497-84.501c-18.701 5.001-39.403 0.201-54.101-14.498-5.205-5.197-9.335-11.371-12.156-18.163-2.82-6.797-4.271-14.080-4.271-21.436 0-7.36 1.451-14.643 4.271-21.436 2.82-6.797 6.95-12.971 12.156-18.167 5.197-5.205 11.371-9.335 18.163-12.156 6.797-2.816 14.080-4.267 21.436-4.267s14.643 1.451 21.436 4.267c6.797 2.82 12.966 6.95 18.163 12.156 6.967 6.946 11.977 15.603 14.519 25.105 2.547 9.498 2.543 19.499-0.017 28.996l84.501 84.501c3.098 3.098 3.098 8.201 0 11.298l-28.301 28.3zM490.001 640h43.998c4.399 0 8 3.6 8 8v80c0 4.4-3.601 8-8 8h-43.998c-4.399 0-8-3.6-8-8v-80c0-4.4 3.601-8 8-8zM749.999 421.999v-43.998c0-4.399 3.601-8 8-8h80c4.399 0 8 3.601 8 8v43.998c0 4.399-3.601 8-8 8h-80c-4.399 0-8-3.601-8-8zM762.701 619.2l-31.1 31.1c-1.506 1.489-3.537 2.324-5.649 2.324-2.116 0-4.147-0.835-5.653-2.324l-56.597-56.6c-1.489-1.504-2.325-3.534-2.325-5.65s0.836-4.146 2.325-5.65l31.1-31.1c3.098-3.1 8.201-3.1 11.298 0l56.602 56.6c3.098 3.1 3.098 8.2 0 11.3zM304.1 650.3c-1.504 1.489-3.534 2.324-5.65 2.324s-4.146-0.835-5.65-2.324l-31.1-31.1c-1.489-1.504-2.324-3.534-2.324-5.65s0.835-4.146 2.324-5.65l56.6-56.6c3.1-3.1 8.2-3.1 11.3 0l31.1 31.1c3.1 3.1 3.1 8.2 0 11.3l-56.6 56.6zM262 429.999h-80c-4.4 0-8-3.601-8-8v-43.998c0-4.399 3.6-8 8-8h80c4.4 0 8 3.601 8 8v43.998c0 4.399-3.6 8-8 8z" />
<glyph unicode="&#xe91c;" glyph-name="delete-filled" d="M218.074 116.147c0-52.147 42.667-94.814 94.815-94.814h379.258c52.147 0 94.814 42.667 94.814 94.814v568.89h-568.887v-568.89zM834.372 827.259h-165.926l-47.407 47.407h-237.039l-47.407-47.407h-165.926v-94.815h663.706v94.815z" />
<glyph unicode="&#xe91d;" glyph-name="delete-outline" d="M692.147 590.222v-474.075h-379.258v474.075h379.258zM621.039 874.667h-237.039l-47.407-47.407h-165.926v-94.815h663.706v94.815h-165.926l-47.407 47.407zM786.961 685.037h-568.887v-568.89c0-52.147 42.667-94.814 94.815-94.814h379.258c52.147 0 94.814 42.667 94.814 94.814v568.89z" />
<glyph unicode="&#xe91e;" glyph-name="edit-filled" d="M85.333 189.133v-144.098c0-13.274 10.428-23.701 23.7-23.701h144.099c6.162 0 12.324 2.368 16.591 7.108l517.617 517.146-177.754 177.754-517.144-517.146c-4.74-4.74-7.11-10.428-7.11-17.062zM924.804 683.051c4.395 4.385 7.881 9.594 10.261 15.328 2.377 5.734 3.601 11.881 3.601 18.089s-1.225 12.355-3.601 18.089c-2.381 5.734-5.867 10.943-10.261 15.328l-110.916 110.918c-4.386 4.394-9.596 7.88-15.33 10.259s-11.883 3.603-18.091 3.603c-6.208 0-12.352-1.225-18.086-3.603s-10.944-5.865-15.33-10.259l-86.746-86.744 177.754-177.754 86.746 86.743z" />
<glyph unicode="&#xe91f;" glyph-name="edit-outline" d="M740.851 865.948l-117.585-117.583c-0.004-0.006-0.026-0.028-0.030-0.034-0.009-0.006 0.004 0.006 0 0l-470.384-470.384c-3.847-3.844-6.421-8.482-7.722-13.389l-58.651-205.278c-2.97-10.398-0.071-21.585 7.573-29.227 7.644-7.646 18.832-10.543 29.227-7.573l205.278 58.65c4.906 1.301 9.545 3.874 13.392 7.723l588 587.997c11.622 11.625 11.622 30.473 0 42.097l-146.999 147c-11.627 11.625-30.473 11.625-42.099 0zM188.625 200.081l75.454-75.456-105.636-30.182 30.182 105.638zM320.901 152l-104.902 104.9 428.302 428.302 104.9-104.902-428.3-428.3zM791.3 622.397l-104.905 104.902 75.503 75.503 104.905-104.902-75.503-75.502z" />
<glyph unicode="&#xe920;" glyph-name="file" d="M844.22 660.762l-208.678 204.952c-5.82 5.714-13.675 8.952-21.918 8.952h-411.927c-17.164 0-31.030-13.619-31.030-30.476v-792.38c0-16.858 13.867-30.477 31.030-30.477h620.605c17.165 0 31.031 13.619 31.031 30.477v587.333c0 8.095-3.298 15.905-9.114 21.619zM781.769 625.143h-182.494v179.238l182.494-179.238zM783.514 89.903h-543.029v716.192h292.849v-205.714c0-10.609 4.292-20.783 11.93-28.284s17.997-11.716 28.796-11.716h209.455v-470.478zM504.243 347.046h-178.425c-4.267 0-7.757-3.426-7.757-7.616v-45.717c0-4.19 3.491-7.616 7.757-7.616h178.425c4.267 0 7.757 3.426 7.757 7.616v45.717c0 4.19-3.49 7.616-7.757 7.616zM318.061 468.954v-45.717c0-4.19 3.491-7.616 7.757-7.616h372.362c4.267 0 7.761 3.426 7.761 7.616v45.717c0 4.19-3.494 7.616-7.761 7.616h-372.362c-4.267 0-7.757-3.426-7.757-7.616z" />
<glyph unicode="&#xe921;" glyph-name="graph-outline" d="M780.361 772.268v-648.526h141.239v648.526h-141.239zM746.227 775.112c0 18.607 15.945 31.289 32.538 31.289h144.444c16.597 0 32.525-12.706 32.525-31.289v-654.212c0-18.607-15.94-31.292-32.538-31.292h-144.431c-16.593 0-32.538 12.685-32.538 31.292v654.212zM294.639 618.443c0 18.607 15.942 31.289 32.536 31.289h144.445c16.576 0 32.525-12.666 32.525-31.279v-497.561c0-18.594-15.919-31.292-32.525-31.292h-144.445c-16.594 0-32.536 12.685-32.536 31.292v497.551zM328.773 615.599v-491.865h141.239v491.865h-141.239zM519.855 461.773v-340.873c0-18.607 15.945-31.287 32.538-31.287h144.444c16.593 0 32.533 12.681 32.533 31.287v340.873c0 18.607-15.94 31.292-32.533 31.292h-144.444c-16.593 0-32.538-12.685-32.538-31.292zM552.393 458.931c0 0 0 0 0 0v0zM553.988 458.931h141.248v-335.185h-141.248v335.185zM68.267 344.273c0 18.607 15.942 31.287 32.536 31.287h144.442c16.602 0 32.537-12.698 32.537-31.287v-223.373c0-18.607-15.942-31.292-32.537-31.292h-144.442c-16.594 0-32.536 12.685-32.536 31.292v223.373zM102.4 341.427v-217.685h141.249v217.685h-141.249z" />
<glyph unicode="&#xe922;" glyph-name="attach-2" d="M585.378 874.667c-48.533 0-95.074-20.433-129.391-56.803-34.318-36.371-53.597-85.7-53.597-137.136v-387.881c0-64.269 49.151-116.361 109.793-116.361s109.427 52.092 109.427 116.361v387.881h-72.832v-387.881c0-10.287-3.853-20.151-10.718-27.426-6.861-7.275-16.171-11.362-25.877-11.362s-19.017 4.087-25.877 11.362c-6.865 7.275-10.722 17.139-10.722 27.426v387.881c0 15.281 2.842 30.412 8.358 44.53s13.606 26.946 23.799 37.751c10.197 10.805 22.302 19.377 35.622 25.225s27.597 8.858 42.014 8.858c14.417 0 28.693-3.010 42.014-8.858s25.425-14.419 35.622-25.225c10.193-10.805 18.283-23.633 23.799-37.751s8.358-29.249 8.358-44.53v-392.727c0-107.132-81.907-189.090-182.989-189.090s-182.988 86.805-182.988 193.937v193.941h-73.195v-193.941c0-149.952 114.697-271.514 256.183-271.514s255.817 121.562 255.817 271.514v387.881c0 107.132-81.54 193.939-182.622 193.939z" />
<glyph unicode="&#xe923;" glyph-name="home-outline" d="M871.258 525.833l-328.96 336.213c-3.964 3.999-8.683 7.173-13.884 9.339s-10.778 3.281-16.41 3.281c-5.632 0-11.209-1.115-16.41-3.281-5.197-2.166-9.916-5.34-13.884-9.339l-328.959-336.64c-7.96-8.026-14.247-17.549-18.495-28.023s-6.373-21.687-6.252-32.99v-357.547c-0.033-21.841 8.31-42.863 23.312-58.739s35.52-25.391 57.328-26.594h606.719c21.811 1.203 42.325 10.718 57.327 26.594s23.347 36.898 23.313 58.739v357.547c0.034 22.916-8.841 44.945-24.747 61.44zM426.671 106.846v256h170.667v-256h-170.667zM810.671 106.846h-128v298.667c0 11.315-4.493 22.17-12.497 30.17-8 8-18.854 12.497-30.17 12.497h-255.999c-11.316 0-22.168-4.497-30.17-12.497s-12.497-18.854-12.497-30.17v-298.667h-128v359.253l298.666 305.067 298.667-306.773v-357.547z" />
<glyph unicode="&#xe924;" glyph-name="image-outline" d="M170.667 832h682.667c47.061 0 85.333-43.056 85.333-96v-576c0-52.945-38.272-96-85.333-96h-682.667c-47.061 0-85.333 43.055-85.333 96v576c0 52.944 38.272 96 85.333 96zM170.667 736v-576h682.752l-0.085 576h-682.667zM320 496c35.346 0 64 32.235 64 72s-28.654 72-64 72c-35.346 0-64-32.236-64-72s28.654-72 64-72zM448 352l-64 96-128-192h512l-192 288-128-192z" />
<glyph unicode="&#xe925;" glyph-name="mail-outline" d="M170.667 533.333v-341.333h682.667v341.333l-341.333-128-341.333 128zM170.667 704v-85.333l341.333-128 341.333 128v85.333h-682.667zM170.667 789.333h682.667c22.63 0 44.335-8.99 60.339-24.994s24.994-37.708 24.994-60.34v-512c0-22.63-8.99-44.335-24.994-60.339s-37.709-24.994-60.339-24.994h-682.667c-22.632 0-44.337 8.99-60.34 24.994s-24.994 37.709-24.994 60.339v512c0 22.632 8.99 44.337 24.994 60.34s37.708 24.994 60.34 24.994z" />
<glyph unicode="&#xe926;" glyph-name="delete-2" d="M256 149.333c0-22.63 8.99-44.335 24.994-60.339s37.708-24.994 60.34-24.994h341.333c22.63 0 44.335 8.99 60.339 24.994s24.994 37.709 24.994 60.339v512h-512v-512zM360.96 453.12l60.16 60.16 90.88-90.453 90.453 90.453 60.16-60.16-90.453-90.453 90.453-90.453-60.16-60.16-90.453 90.453-90.453-90.453-60.16 60.16 90.453 90.453-90.88 90.453zM661.333 789.333l-42.667 42.667h-213.333l-42.667-42.667h-149.333v-85.333h597.333v85.333h-149.333z" />
<glyph unicode="&#xe927;" glyph-name="mic-mute-outline" d="M734.519 361.924c8.303 27.699 12.527 56.759 12.501 86.016v53.325c0 7.070-2.475 13.854-6.882 18.854s-10.385 7.808-16.619 7.808c-6.234 0-12.211-2.807-16.619-7.808s-6.882-11.785-6.882-18.854v-53.325c0-14.613-1.271-28.796-3.763-42.607l38.263-43.409zM615.974 270.204c-28.326-21.329-61.222-33.545-95.185-35.349-33.963-1.801-67.721 6.878-97.682 25.114-29.96 18.236-55 45.346-72.455 78.447s-26.673 70.955-26.67 109.525v53.325c0 7.070-2.476 13.854-6.884 18.854s-10.385 7.808-16.619 7.808c-6.233 0-12.211-2.807-16.619-7.808s-6.883-11.785-6.883-18.854v-53.325c-0.001-66.099 21.64-129.843 60.724-178.863s92.826-79.825 150.798-86.434v-107.985h-141.015c-6.233 0-12.211-2.807-16.619-7.808s-6.883-11.785-6.883-18.854c0-7.070 2.476-13.854 6.883-18.854s10.385-7.808 16.619-7.808h329.030c6.234 0 12.211 2.807 16.619 7.808s6.886 11.785 6.886 18.854c0 7.070-2.479 13.854-6.886 18.854s-10.385 7.808-16.619 7.808h-141.013v107.985c41.25 4.629 80.67 21.615 114.223 49.22l-33.749 38.34zM653.013 454.34v260.228c0.026 37.939-11.836 74.653-33.463 103.588s-51.618 48.209-84.617 54.38c-32.994 6.17-66.85-1.164-95.522-20.692-28.669-19.529-50.289-49.982-60.998-85.923l39.719-45.060c1.338 27.781 12.191 53.869 30.248 72.698s41.882 28.908 66.394 28.087c24.516-0.821 47.774-12.477 64.819-32.482s26.526-46.773 26.415-74.596v-206.852l47.006-53.325v-0.051zM546.688 348.753l35.162-39.889c-21.453-13.875-45.743-21.12-70.443-21.001-24.695 0.115-48.93 7.59-70.281 21.67-21.35 14.084-39.066 34.278-51.376 58.569s-18.78 51.819-18.764 79.838v100.198l47.004-53.325v-46.874c-0.009-17.412 3.74-34.56 10.92-49.95 7.177-15.386 17.566-28.548 30.263-38.332 12.693-9.783 27.307-15.893 42.564-17.792 15.253-1.903 30.686 0.461 44.949 6.886zM777.387 162.432l-564.053 639.911 33.279 37.755 564.054-639.91-33.28-37.7v-0.055z" />
<glyph unicode="&#xe928;" glyph-name="mic-on-outline" d="M614.4 714.667c0 28.29-10.79 55.421-29.99 75.425-19.204 20.004-45.252 31.242-72.41 31.242s-53.205-11.238-72.41-31.242c-19.202-20.004-29.99-47.135-29.99-75.425v-266.667c0-28.288 10.789-55.42 29.99-75.426 19.204-20.002 45.252-31.241 72.41-31.241s53.205 11.238 72.41 31.241c19.2 20.006 29.99 47.138 29.99 75.426v266.667zM403.389 827.804c28.803 30.006 67.873 46.863 108.611 46.863s79.808-16.857 108.612-46.863c28.804-30.006 44.988-70.703 44.988-113.137v-266.667c0-42.436-16.183-83.132-44.988-113.139-28.804-30.003-67.874-46.861-108.612-46.861s-79.808 16.858-108.611 46.861c-28.806 30.007-44.989 70.703-44.989 113.139v266.667c0 42.435 16.183 83.131 44.989 113.137zM299.702 520.188c4.801-5.001 7.498-11.78 7.498-18.854v-53.333c0-56.58 21.577-110.844 59.985-150.848 38.407-40.009 90.501-62.485 144.815-62.485s106.406 22.477 144.815 62.485c38.409 40.004 59.985 94.268 59.985 150.848v53.333c0 7.074 2.697 13.854 7.497 18.854 4.804 5.005 11.315 7.812 18.103 7.812s13.299-2.807 18.103-7.812c4.8-5.001 7.497-11.78 7.497-18.854v-53.333c0-66.108-23.573-129.86-66.146-178.889-42.569-49.028-101.107-79.834-164.254-86.447v-107.998h153.6c6.788 0 13.299-2.807 18.103-7.812 4.8-5.001 7.497-11.78 7.497-18.854s-2.697-13.854-7.497-18.854c-4.804-5.005-11.315-7.812-18.103-7.812h-358.4c-6.79 0-13.301 2.807-18.102 7.812-4.801 5.001-7.498 11.78-7.498 18.854s2.697 13.854 7.498 18.854c4.801 5.005 11.312 7.812 18.102 7.812h153.6v107.998c-63.146 6.613-121.683 37.419-164.256 86.447s-66.145 112.781-66.144 178.889v53.333c0 7.074 2.697 13.854 7.498 18.854 4.801 5.005 11.312 7.812 18.102 7.812s13.301-2.807 18.102-7.812z" />
<glyph unicode="&#xe929;" glyph-name="pin-outline" d="M213.333 576c0 165.12 133.547 298.667 298.667 298.667s298.667-133.547 298.667-298.667c0-224-298.667-554.667-298.667-554.667s-298.667 330.667-298.667 554.667zM512 789.333c-117.76 0-213.333-95.573-213.333-213.333 0-121.6 124.587-307.627 213.333-421.547 90.453 114.773 213.333 298.667 213.333 421.547 0 117.76-95.573 213.333-213.333 213.333zM618.667 576c0-58.91-47.757-106.667-106.667-106.667s-106.667 47.757-106.667 106.667c0 58.91 47.757 106.667 106.667 106.667s106.667-47.756 106.667-106.667z" />
<glyph unicode="&#xe92a;" glyph-name="product-outline" d="M938.667 874.667h-853.333v-256h42.667v-469.333c0-22.63 8.99-44.335 24.994-60.339s37.708-24.994 60.34-24.994h597.333c22.63 0 44.335 8.99 60.339 24.994s24.994 37.709 24.994 60.339v469.333h42.667v256zM170.667 789.333h682.667v-85.333h-682.667v85.333zM810.667 149.333h-597.333v469.333h597.333v-469.333zM384 533.333h256c0-22.63-8.99-44.335-24.994-60.339s-37.709-24.994-60.339-24.994h-85.333c-22.63 0-44.337 8.99-60.34 24.994s-24.994 37.709-24.994 60.339z" />
<glyph unicode="&#xe92b;" glyph-name="radio-active" d="M85.333 448c0 235.215 191.451 426.667 426.667 426.667s426.667-191.451 426.667-426.667c0-235.217-191.45-426.667-426.667-426.667-235.215 0-426.667 191.45-426.667 426.667zM207.238 448c0-168.047 136.716-304.764 304.762-304.764s304.764 136.717 304.764 304.764c0 168.046-136.717 304.762-304.764 304.762-168.046 0-304.762-136.716-304.762-304.762zM329.143 448c0 99.17 83.687 182.857 182.857 182.857s182.857-83.687 182.857-182.857c0-99.17-83.686-182.857-182.857-182.857s-182.857 83.686-182.857 182.857z" />
<glyph unicode="&#xe92c;" glyph-name="radio-default" d="M512 874.667c-235.215 0-426.667-191.451-426.667-426.667s191.451-426.667 426.667-426.667c235.217 0 426.667 191.45 426.667 426.667 0 235.215-191.45 426.667-426.667 426.667zM512 143.236c-168.046 0-304.762 136.717-304.762 304.764s136.716 304.762 304.762 304.762c168.047 0 304.764-136.716 304.764-304.762s-136.717-304.764-304.764-304.764z" />
<glyph unicode="&#xe92d;" glyph-name="refresh1" d="M938.667 564.937v252.106c0 21.446-25.617 31.93-40.324 16.68l-84.442-84.829c-44.437 44.644-98.129 78.895-157.248 100.312-59.123 21.417-122.214 29.474-184.789 23.596-198.772-18.109-362.438-178.714-384.26-378.397-11.535-111.966 21.204-223.996 91.157-311.927s171.509-144.717 282.761-158.097c111.253-13.385 223.287 17.702 311.927 86.554 88.644 68.851 146.79 169.95 161.899 281.485 3.319 28.595-18.978 53.376-47.441 53.376-23.718 0-43.644-17.634-46.49-40.986-20.399-166.323-163.191-294.997-334.447-292.612-176.002 2.381-324.488 151.548-327.334 328.832-2.846 185.863 147.537 338.366 332.074 338.366 91.558 0 174.579-37.649 234.829-97.697l-99.149-99.603c-15.181-15.25-4.745-40.985 16.602-40.985h250.957c13.282 0 23.718 10.485 23.718 23.829z" />
<glyph unicode="&#xe92e;" glyph-name="remove-box-filled" d="M843.853 874.667h-663.705c-52.148 0-94.815-42.667-94.815-94.815v-663.705c0-52.147 42.667-94.814 94.815-94.814h663.705c52.147 0 94.814 42.667 94.814 94.814v663.705c0 52.148-42.667 94.815-94.814 94.815zM701.628 400.593h-379.257c-26.074 0-47.408 21.333-47.408 47.407s21.333 47.407 47.408 47.407h379.257c26.078 0 47.411-21.333 47.411-47.407s-21.333-47.407-47.411-47.407z" />
<glyph unicode="&#xe92f;" glyph-name="remove-circular-filled" d="M512 874.667c-235.261 0-426.667-191.405-426.667-426.667 0-235.26 191.405-426.667 426.667-426.667 235.26 0 426.667 191.407 426.667 426.667 0 235.261-191.407 426.667-426.667 426.667zM777.847 415.181h-531.694c-8.704 0-17.053 3.456-23.208 9.613-6.155 6.153-9.613 14.502-9.613 23.206s3.458 17.054 9.613 23.206c6.155 6.157 14.503 9.613 23.208 9.613s531.694 0 531.694 0c8.704 0 17.050-3.456 23.206-9.613 6.157-6.153 9.613-14.502 9.613-23.206s-3.456-17.054-9.613-23.206c-6.157-6.157-14.502-9.613-23.206-9.613z" />
<glyph unicode="&#xe930;" glyph-name="remove-circular-outline" d="M298.667 490.667h426.667v-85.333h-426.667v85.333zM512 874.667c-235.52 0-426.667-191.147-426.667-426.667s191.147-426.667 426.667-426.667c235.52 0 426.667 191.147 426.667 426.667s-191.147 426.667-426.667 426.667zM512 106.667c-188.16 0-341.333 153.173-341.333 341.333s153.173 341.333 341.333 341.333c188.16 0 341.333-153.173 341.333-341.333s-153.173-341.333-341.333-341.333z" />
<glyph unicode="&#xe931;" glyph-name="remove-default" d="M938.667 429.713c0-33.66-27.29-60.949-60.954-60.949h-731.427c-33.663 0-60.952 27.29-60.952 60.949 0 33.664 27.289 60.954 60.952 60.954h731.427c33.664 0 60.954-27.29 60.954-60.954z" />
<glyph unicode="&#xe932;" glyph-name="settings-outline" d="M593.557 874.665h-163.055c-23.649 0-46.015-16.751-49.474-42.308l-13.059-88.585c-16.238-7.588-31.516-16.442-45.927-26.094l-87.006 33.987c-22.328 8.499-48.651 0.356-61.219-21.597l-81.397-136.974c-13.498-22.388-6.792-49.656 12.297-64.317l72.798-55.373c-0.729-8.235-1.198-16.751-1.198-25.399s0.468-17.165 1.198-25.399l-72.798-55.377c-20.009-15.364-24.533-42.522-12.73-63.569l81.83-137.719c13.050-22.797 40.028-29.103 60.556-21.841l87.528 34.176c14.574-9.856 29.901-18.59 46.074-26.078l13.053-88.546c3.459-25.557 25.825-42.308 49.474-42.308h163.213c23.646 0 46.012 16.751 49.472 42.308l13.060 88.585c16.235 7.586 31.514 16.439 45.926 26.095l87.006-33.988c22.327-8.499 48.653-0.354 61.218 21.598l81.83 137.719c11.802 21.047 7.279 48.205-12.732 63.569l-72.789 55.369c0.725 8.119 1.19 16.563 1.19 25.408 0 8.841-0.465 17.284-1.19 25.408l72.789 55.364c20.011 15.366 24.533 42.522 12.732 63.57l-81.83 137.718c-13.047 22.799-40.030 29.104-60.557 21.843l-87.526-34.176c-14.575 9.853-29.901 18.588-46.076 26.078l-13.073 88.676c0 0.015-0.004 0.029-0.004 0.044-1.754 12.050-7.936 22.886-17.152 30.569-9.143 7.623-20.676 11.666-32.452 11.565zM585.549 815.13l16.713-113.382 15.927-6.349c22.298-8.89 42.876-20.66 62.148-35.078l13.248-9.914 109.483 42.769 72.913-122.699-92.425-70.304 2.193-17.067c1.553-12.105 2.611-23.403 2.611-35.102s-1.058-22.997-2.611-35.102l-2.193-17.071 92.425-70.302-72.913-122.701-109.265 42.684-13.18-9.613c-19.669-14.353-40.346-26.487-62.434-35.294l-15.927-6.349-16.713-113.382h-146.884l-16.713 113.382-15.925 6.349c-22.3 8.892-42.877 20.659-62.147 35.081l-13.25 9.911-109.482-42.769-72.914 122.701 92.426 70.302-2.193 17.071c-1.552 12.075-2.614 23.782-2.614 35.102s1.062 23.027 2.614 35.102l2.193 17.067-92.426 70.304 72.914 122.699 109.263-42.683 13.179 9.615c19.672 14.351 40.346 26.486 62.436 35.293l15.925 6.349 16.713 113.382h146.884zM512.107 557.149c-63.091 0-113.042-49.757-113.042-109.145 0-59.392 49.951-109.146 113.042-109.146s113.045 49.754 113.045 109.146c0 59.388-49.954 109.145-113.045 109.145zM339.53 448.004c0 93.81 78.17 168.679 172.576 168.679 94.409 0 172.578-74.868 172.578-168.679s-78.17-168.683-172.578-168.683c-94.407 0-172.576 74.871-172.576 168.683z" />
<glyph unicode="&#xe933;" glyph-name="mic" d="M381.666 903.764c-34.567-36.007-53.986-84.843-53.986-135.764v-320c0-50.924 19.419-99.758 53.986-135.767 34.567-36.004 81.449-56.233 130.334-56.233s95.767 20.229 130.334 56.233c34.567 36.009 53.986 84.844 53.986 135.767v320c0 50.921-19.419 99.758-53.986 135.764s-81.449 56.236-130.334 56.236c-48.885 0-95.767-20.229-130.334-56.236zM257.242 534.627c-5.761 6.001-13.575 9.373-21.722 9.373s-15.961-3.372-21.722-9.373c-5.761-6.001-8.998-14.14-8.998-22.627v-64c-0.001-79.329 28.286-155.832 79.373-214.666s121.332-95.8 197.107-103.736v-129.597h-184.32c-8.147 0-15.961-3.369-21.722-9.375-5.762-6.001-8.998-14.136-8.998-22.625s3.236-16.625 8.998-22.625c5.761-6.006 13.575-9.375 21.722-9.375h430.080c8.146 0 15.959 3.369 21.724 9.375 5.76 6.001 8.996 14.136 8.996 22.625s-3.236 16.625-8.996 22.625c-5.765 6.006-13.578 9.375-21.724 9.375h-184.32v129.597c75.775 7.936 146.020 44.902 197.105 103.736 51.087 58.834 79.375 135.337 79.375 214.666v64c0 8.487-3.236 16.626-8.996 22.627-5.765 6.001-13.578 9.373-21.724 9.373s-15.959-3.372-21.724-9.373c-5.76-6.001-8.996-14.14-8.996-22.627v-64c0-67.896-25.892-133.012-71.982-181.018-46.089-48.010-108.599-74.982-173.778-74.982s-127.69 26.972-173.778 74.982c-46.089 48.005-71.982 113.121-71.982 181.018v64c0 8.487-3.236 16.626-8.998 22.627z" />
<glyph unicode="&#xe934;" glyph-name="volume-on" d="M672.067 933.404c-5.678 9.058-13.788 16.325-23.404 20.969-9.626 4.647-20.372 6.472-30.991 5.264s-20.68-5.399-29.030-12.092l-268.109-215.070h-263.801c-15.046 0-29.476-5.994-40.115-16.665s-16.616-25.142-16.616-40.232v-455.173c0-15.094 5.977-29.563 16.616-40.233s25.069-16.666 40.115-16.666h263.801l268.109-215.071c8.346-6.682 18.396-10.865 29.005-12.073 10.604-1.208 21.335 0.609 30.961 5.248 9.62 4.634 17.746 11.899 23.434 20.956 5.693 9.057 8.719 19.543 8.735 30.249v910.349c-0.010 10.7-3.026 21.18-8.709 30.238zM985.257 251.981c-25.661-62.141-63.319-118.579-110.802-166.077l-80.215 80.451c71.818 72.146 116.296 171.715 116.296 281.641 0.072 52.313-10.163 104.125-30.121 152.459-19.963 48.333-49.244 92.234-86.175 129.18l80.215 80.452c47.483-47.498 85.14-103.939 110.802-166.079s38.83-128.753 38.743-196.012c0.087-67.261-13.082-133.873-38.743-196.014z" />
<glyph unicode="&#xe935;" glyph-name="volume-off" d="M433.244 748.488c-3.662 5.607-8.89 10.106-15.086 12.981-6.208 2.877-13.134 4.007-19.979 3.259s-13.332-3.343-18.714-7.485l-172.837-133.139h-170.057c-9.699 0-19.001-3.711-25.86-10.316s-10.712-15.564-10.712-24.906v-281.775c0-9.341 3.853-18.3 10.712-24.906 6.858-6.604 16.161-10.315 25.86-10.315h170.057l172.837-133.14c5.377-4.135 11.857-6.729 18.695-7.475s13.756 0.38 19.959 3.248c6.203 2.872 11.44 7.368 15.108 12.976s5.62 12.098 5.63 18.725v563.55c-0.006 6.624-1.952 13.112-5.613 18.719zM965.686 611.753l-139.669-139.344 139.669-139.344c3.043-3.019 5.461-6.612 7.109-10.57s2.497-8.203 2.497-12.491c0-4.288-0.848-8.533-2.497-12.491s-4.067-7.551-7.109-10.57c-3.018-3.045-6.612-5.461-10.572-7.11-3.955-1.649-8.202-2.498-12.488-2.498-4.291 0-8.533 0.849-12.493 2.498s-7.553 4.065-10.572 7.11l-139.342 139.669-139.347-139.669c-3.018-3.045-6.612-5.461-10.567-7.11-3.959-1.649-8.207-2.498-12.493-2.498-4.291 0-8.533 0.849-12.493 2.498s-7.548 4.065-10.572 7.11c-3.043 3.019-5.461 6.612-7.109 10.57s-2.497 8.203-2.497 12.491c0 4.288 0.848 8.533 2.497 12.491s4.067 7.551 7.109 10.57l139.669 139.344-139.669 139.344c-6.115 6.117-9.552 14.412-9.552 23.062s3.438 16.945 9.552 23.061c6.12 6.116 14.414 9.552 23.064 9.552s16.945-3.436 23.060-9.552l139.347-139.669 139.342 139.669c6.115 6.116 14.414 9.552 23.064 9.552 8.645 0 16.945-3.436 23.060-9.552s9.552-14.412 9.552-23.061c0-8.65-3.438-16.945-9.552-23.062z" />
<glyph unicode="&#xe936;" glyph-name="update" d="M464.273 600.68v-175.379c0-16.678 9.011-32.405 23.245-40.986l148.011-88.166c17.079-10.005 38.899-4.288 48.862 12.395 9.963 17.156 4.745 39.078-12.335 49.084l-136.149 81.493v162.036c-0.474 19.063-16.606 35.266-36.053 35.266-19.452 0-35.58-16.204-35.58-35.743zM938.667 564.937v252.106c0 21.446-25.617 31.93-40.324 16.68l-84.442-84.829c-44.437 44.644-98.129 78.895-157.248 100.312-59.123 21.417-122.214 29.474-184.789 23.596-198.772-18.109-362.438-178.714-384.26-378.397-11.535-111.966 21.204-223.996 91.157-311.927s171.509-144.717 282.761-158.097c111.253-13.385 223.287 17.702 311.927 86.554 88.644 68.851 146.79 169.95 161.899 281.485 3.319 28.595-18.978 53.376-47.441 53.376-23.718 0-43.644-17.634-46.49-40.986-20.399-166.323-163.191-294.997-334.447-292.612-176.002 2.381-324.488 151.548-327.334 328.832-2.846 185.863 147.537 338.366 332.074 338.366 91.558 0 174.579-37.649 234.829-97.697l-99.149-99.603c-15.181-15.25-4.745-40.985 16.602-40.985h250.957c13.282 0 23.718 10.485 23.718 23.829z" />
<glyph unicode="&#xe937;" glyph-name="upload-1" d="M481.83 862.17c4.117 4.116 8.866 7.215 13.931 9.298 4.774 1.966 9.984 3.091 15.441 3.191 0.533 0.010 1.062 0.010 1.596 0 10.654-0.198 21.244-4.361 29.372-12.489l213.333-213.333c16.661-16.663 16.661-43.677 0-60.34s-43.678-16.662-60.339 0l-140.497 140.497v-408.994c0-23.565-19.102-42.667-42.667-42.667s-42.667 19.102-42.667 42.667v408.994l-140.497-140.497c-16.663-16.662-43.677-16.662-60.34 0s-16.662 43.677 0 60.34l213.334 213.333zM170.667 320c0 23.565-19.103 42.667-42.667 42.667s-42.667-19.102-42.667-42.667v-170.667c0-33.95 13.486-66.505 37.49-90.509s56.562-37.491 90.51-37.491h597.333c33.95 0 66.505 13.487 90.509 37.491s37.491 56.559 37.491 90.509v170.667c0 23.565-19.102 42.667-42.667 42.667s-42.667-19.102-42.667-42.667v-170.667c0-11.315-4.497-22.17-12.497-30.17s-18.854-12.497-30.17-12.497h-597.333c-11.316 0-22.168 4.497-30.17 12.497s-12.497 18.854-12.497 30.17v170.667z" />
<glyph unicode="&#xe938;" glyph-name="user-outline" d="M902.306 178.278c-20.215 47.902-49.553 91.409-86.379 128.107-36.71 36.8-80.201 66.142-128.068 86.404-0.427 0.218-0.858 0.324-1.284 0.538 66.765 48.239 110.17 126.822 110.17 215.477 0 146.868-118.959 265.863-265.783 265.863-146.822 0-265.78-118.995-265.78-265.863 0-88.655 43.404-167.238 110.171-215.584-0.429-0.213-0.858-0.324-1.286-0.538-48.012-20.262-91.095-49.314-128.068-86.404-36.791-36.723-66.124-80.226-86.38-128.107-19.899-46.874-30.631-97.131-31.615-148.049-0.029-1.143 0.172-2.283 0.59-3.345 0.418-1.067 1.045-2.039 1.844-2.859s1.754-1.468 2.808-1.911c1.054-0.444 2.187-0.674 3.331-0.674h64.302c4.716 0 8.466 3.75 8.573 8.363 2.144 82.761 35.366 160.269 94.096 219.012 60.765 60.787 141.466 94.234 227.413 94.234 85.952 0 166.652-33.446 227.418-94.234 58.731-58.743 91.951-136.252 94.097-219.012 0.107-4.719 3.857-8.363 8.572-8.363h64.303c1.143 0 2.274 0.23 3.332 0.674 1.054 0.444 2.010 1.092 2.807 1.911s1.425 1.792 1.843 2.859c0.418 1.062 0.619 2.202 0.589 3.345-1.071 51.243-11.682 101.094-31.616 148.156zM530.961 424.414c-49.19 0-95.488 19.191-130.317 54.033-34.831 34.842-54.014 81.151-54.014 130.357s19.183 95.518 54.014 130.359c34.829 34.841 81.127 54.030 130.317 54.030 49.195 0 95.492-19.189 130.321-54.030s54.012-81.152 54.012-130.359c0-49.206-19.183-95.515-54.012-130.357s-81.126-54.033-130.321-54.033z" />
<glyph unicode="&#xe939;" glyph-name="mic-mute" d="M779.023 344.709c9.964 33.239 15.032 68.111 15.002 103.219v63.99c0 8.486-2.97 16.624-8.259 22.624s-12.462 9.371-19.942 9.371c-7.48 0-14.653-3.371-19.942-9.371s-8.259-14.138-8.259-22.624v-63.99c0-17.536-1.526-34.555-4.516-51.128l45.916-52.091zM636.769 234.644c-33.994-25.595-73.469-40.253-114.224-42.419-40.755-2.161-81.265 8.253-117.216 30.136s-66 54.415-86.946 94.136c-20.946 39.721-32.007 85.146-32.004 131.43v63.99c0 8.486-2.972 16.624-8.261 22.624s-12.463 9.371-19.942 9.371c-7.48 0-14.653-3.371-19.942-9.371s-8.26-14.138-8.26-22.624v-63.99c-0.001-79.319 25.968-155.812 72.869-214.636s111.39-95.79 180.956-103.721v-129.582h-169.217c-7.48 0-14.653-3.369-19.942-9.37s-8.26-14.141-8.26-22.625c0-8.484 2.971-16.625 8.26-22.625s12.463-9.37 19.942-9.37h394.836c7.48 0 14.653 3.369 19.942 9.37s8.264 14.141 8.264 22.625c0 8.484-2.975 16.625-8.264 22.625s-12.462 9.37-19.942 9.37h-169.214v129.582c49.496 5.555 96.801 25.938 137.066 59.064l-40.5 46.008zM681.216 455.607v312.275c0.031 45.527-14.203 89.584-40.157 124.306s-61.942 57.851-101.537 65.255c-39.596 7.405-80.222-1.396-114.627-24.831s-60.349-59.978-73.2-103.107l329.52-373.899zM342.784 568.23l253.034-287.066c-25.736-16.645-54.874-25.339-84.5-25.201-29.625 0.133-58.701 9.093-84.318 25.974s-46.879 41.098-61.658 70.231c-14.779 29.128-22.558 62.147-22.559 95.759v120.302zM830.464 105.318l-676.864 767.893 39.935 45.306 676.865-767.892-39.936-45.24v-0.067z" />
<glyph unicode="&#xe93a;" glyph-name="gallery" d="M960 908.8h-896c-16.974 0-33.253-6.936-45.255-19.281s-18.745-29.089-18.745-46.548v-789.944c0-17.459 6.743-34.202 18.745-46.546s28.281-19.282 45.255-19.282h896c16.973 0 33.254 6.938 45.256 19.282s18.744 29.087 18.744 46.546v789.944c0 17.459-6.743 34.202-18.744 46.548s-28.283 19.281-45.256 19.281zM221.44 777.143c18.987 0 37.548-5.791 53.335-16.641s28.092-26.272 35.358-44.315c7.266-18.043 9.167-37.897 5.463-57.051s-12.847-36.748-26.273-50.558c-13.426-13.809-30.532-23.214-49.154-27.023s-37.924-1.855-55.466 5.619c-17.542 7.474-32.535 20.13-43.084 36.368s-16.179 35.329-16.179 54.859c0 26.188 10.114 51.304 28.118 69.822s42.422 28.921 67.882 28.921zM128 151.772v134.948l192 200.119c5.996 6.13 14.106 9.571 22.56 9.571s16.564-3.441 22.56-9.571l82.88-83.273-245.76-251.793h-74.24zM896 151.772h-603.2l372.16 382.792c5.996 6.131 14.106 9.571 22.559 9.571s16.563-3.441 22.564-9.571l185.917-191.233v-191.56z" />
<glyph unicode="&#xe93b;" glyph-name="volume-mute-outline" d="M464.422 732.26c-3.204 4.906-7.778 8.843-13.201 11.359-5.431 2.517-11.49 3.505-17.481 2.851s-11.667-2.925-16.375-6.55l-151.232-116.497h-148.8c-8.487 0-16.626-3.247-22.627-9.027s-9.373-13.619-9.373-21.792v-246.553c0-8.175 3.372-16.013 9.373-21.794 6.001-5.777 14.141-9.024 22.627-9.024h148.8l151.232-116.497c4.705-3.618 10.377-5.888 16.358-6.541s12.036 0.333 17.463 2.842c5.427 2.513 10.010 6.447 13.222 11.354 3.209 4.907 4.915 10.586 4.924 16.384v493.106c-0.004 5.796-1.707 11.473-4.911 16.379zM297.301 568.566l108.032 83.212v-364.9l-108.032 83.213c-5.664 4.378-12.706 6.767-19.968 6.78h-128v184.916h128c7.262 0.012 14.304 2.403 19.968 6.78zM930.308 569.95l-122.21-121.925 122.21-121.929c2.662-2.641 4.779-5.786 6.221-9.246 1.442-3.465 2.185-7.181 2.185-10.931 0-3.755-0.742-7.467-2.185-10.931s-3.558-6.605-6.221-9.25c-2.641-2.662-5.786-4.779-9.25-6.221-3.46-1.442-7.177-2.185-10.927-2.185-3.755 0-7.467 0.742-10.931 2.185s-6.609 3.558-9.25 6.221l-121.924 122.21-121.929-122.21c-2.641-2.662-5.786-4.779-9.246-6.221-3.465-1.442-7.181-2.185-10.931-2.185-3.755 0-7.467 0.742-10.931 2.185s-6.605 3.558-9.25 6.221c-2.662 2.645-4.779 5.786-6.221 9.25s-2.185 7.177-2.185 10.931c0 3.75 0.742 7.467 2.185 10.931 1.442 3.46 3.558 6.605 6.221 9.246l122.21 121.929-122.21 121.925c-5.35 5.352-8.358 12.611-8.358 20.179s3.008 14.827 8.358 20.179c5.355 5.352 12.612 8.358 20.181 8.358s14.827-3.007 20.177-8.358l121.929-122.21 121.924 122.21c5.35 5.352 12.612 8.358 20.181 8.358 7.565 0 14.827-3.007 20.177-8.358s8.358-12.611 8.358-20.179c0-7.569-3.008-14.827-8.358-20.179z" />
<glyph unicode="&#xe93c;" glyph-name="volume-on-outline" d="M645.389 852.503c-4.732 7.548-11.49 13.605-19.503 17.475-8.021 3.873-16.977 5.393-25.826 4.387s-17.233-4.5-24.192-10.077l-223.424-179.225h-219.834c-12.538 0-24.563-4.995-33.429-13.887s-13.847-20.952-13.847-33.527v-379.311c0-12.578 4.981-24.636 13.847-33.527s20.89-13.888 33.429-13.888h219.834l223.424-179.226c6.955-5.568 15.33-9.054 24.171-10.061 8.836-1.007 17.779 0.508 25.801 4.373 8.017 3.861 14.788 9.916 19.529 17.463 4.745 7.548 7.266 16.286 7.279 25.207v758.624c-0.009 8.916-2.522 17.65-7.258 25.198zM398.49 600.666l159.603 128.018v-561.384l-159.603 128.017c-8.369 6.737-18.772 10.415-29.5 10.432h-189.104v284.486h189.104c10.729 0.019 21.132 3.697 29.5 10.431zM906.381 284.651c-21.385-51.785-52.766-98.816-92.335-138.398l-66.846 67.042c59.849 60.122 96.913 143.095 96.913 234.701 0.060 43.593-8.469 86.771-25.101 127.049-16.636 40.278-41.037 76.862-71.812 107.65l66.846 67.043c39.569-39.582 70.95-86.616 92.335-138.399s32.358-107.296 32.286-163.343c0.073-56.051-10.901-111.561-32.286-163.345z" />
<glyph unicode="&#xe94a;" glyph-name="account" d="M511.996 657.766c-97.801 0-177.365-79.565-177.365-177.367 0.002-97.532 79.258-177.367 177.367-177.367 27.648 0 54.795 6.259 80.087 19.083 0.211 0.107 0.397 0.241 0.599 0.358 57.348 29.417 96.678 89.167 96.678 157.929 0 97.798-79.567 177.365-177.367 177.365zM570.308 345.086c-37.152-16.070-79.435-16.083-116.614 0v67.829c0 12.427 10.108 22.537 22.537 22.537h71.541c12.427 0 22.539-10.108 22.539-22.537v-67.829h-0.002zM600.307 362.5v50.415c0 28.969-23.569 52.538-52.54 52.538h-71.539c-28.971 0-52.538-23.567-52.538-52.538v-50.415c-35.831 26.906-59.059 69.737-59.059 117.899 0 81.257 66.108 147.364 147.364 147.364s147.364-66.108 147.364-147.364c0.004-48.158-23.219-90.991-59.053-117.899zM511.998 605.655c-34.989 0-63.454-28.463-63.454-63.454 0-34.989 28.467-63.456 63.454-63.456 34.989 0 63.454 28.467 63.454 63.456 0 34.991-28.461 63.454-63.454 63.454zM511.998 508.747c-18.447 0-33.451 15.006-33.451 33.453s15.006 33.453 33.451 33.453c18.447 0 33.453-15.006 33.453-33.453 0.002-18.447-15.004-33.453-33.453-33.453zM787.275 263.025h-550.549c-13.89 0-25.194-11.298-25.194-25.195v-95.62c0-13.892 11.302-25.197 25.196-25.197h550.547c13.892 0 25.197 11.3 25.197 25.197v95.62c0 13.894-11.305 25.195-25.197 25.195zM782.468 147.021h-540.934v86.005h540.932v-86.005h0.002zM732.282 205.024h-442.027c-8.284 0-14.999-6.714-14.999-15.002 0-8.286 6.716-14.999 14.999-14.999h442.027c8.284 0 14.999 6.714 14.999 14.999 0.002 8.288-6.716 15.002-14.999 15.002zM993.030 885.648c-9.015 0-948.886 0-962.060 0h-0.002c-17.336 0-30.968-14.116-30.968-30.968 0-32.42 0-776.95 0-813.36 0-17.075 13.89-30.967 30.966-30.967h445.301c8.284 0 14.999 6.714 14.999 14.999s-6.716 14.999-14.999 14.999h-445.299c-0.532 0-0.964 0.435-0.964 0.966l0.004 662.635c7.044 0 948.895 0 963.991 0v-249.711c0-8.286 6.716-14.999 14.999-14.999s14.999 6.714 14.999 14.999v400.438c0.002 17.344-14.074 30.968-30.967 30.968zM148.556 733.952l-118.548 0.002v120.748c0.002 0.102 0.026 0.198 0.058 0.288 0.010 0.026 0.012 0.052 0.024 0.078 0.042 0.092 0.1 0.174 0.168 0.25 0.014 0.014 0.020 0.032 0.034 0.046 0.174 0.172 0.414 0.28 0.678 0.28h117.586v-121.692zM993.997 733.954h-815.443v121.692h814.474c0.141 0 0.275-0.034 0.397-0.090 0.32-0.15 0.525-0.474 0.567-0.856 0-0.006 0.004-0.012 0.004-0.020v-120.726zM1009.001 399.243c-8.284 0-14.999-6.714-14.999-14.999v-342.921c0-0.535-0.435-0.966-0.966-0.966h-446.765c-8.284 0-14.999-6.714-14.999-14.999s6.716-15.002 14.999-15.002h446.763c17.077 0 30.967 13.892 30.967 30.97v342.916c0 8.284-6.716 15.002-14.999 15.002z" />
<glyph unicode="&#xe94b;" glyph-name="money" d="M362.662 888.8h-75.070c-8.288 0-15.004-6.716-15.004-15.004s6.716-15.004 15.004-15.004h75.070c8.288 0 15.004 6.716 15.004 15.004s-6.716 15.004-15.004 15.004zM243.991 888.8h-26.921c-8.287 0-15.003-6.716-15.003-15.004s6.716-15.004 15.003-15.004h26.921c8.288 0 15.004 6.716 15.004 15.004s-6.716 15.004-15.004 15.004zM289.865 101.097c-32.122 0-58.251-26.131-58.251-58.251 0-32.122 26.133-58.251 58.251-58.251 32.119-0.002 58.253 26.129 58.253 58.251-0.002 32.119-26.133 58.251-58.253 58.251zM289.865 14.605c-15.573-0.002-28.241 12.668-28.241 28.241s12.67 28.243 28.241 28.243c15.571 0 28.243-12.67 28.243-28.243s-12.672-28.241-28.243-28.241zM1007.358 659.543h-109.771c-8.288 0-15.004-6.716-15.004-15.004s6.716-15.004 15.004-15.004h94.767v-363.072h-586.071c-8.288 0-15.004-6.716-15.004-15.004s6.716-15.004 15.004-15.004h77.662v-87.71h-388.163v641.417h63.2c8.288 0 15.004 6.716 15.004 15.004s-6.716 15.004-15.004 15.004h-78.206c-8.286 0-15.004-6.716-15.004-15.004v-671.427c0-8.288 6.718-15.004 15.004-15.004h418.173c8.288 0 15.004 6.716 15.004 15.004v102.714h34.129v-215.605c0-30.24-24.602-54.844-54.842-54.844h-406.754c-30.238 0-54.842 24.604-54.842 54.844v854.301c0 30.238 24.604 54.842 54.842 54.842h406.754c30.24 0 54.842-24.604 54.842-54.842v-215.604h-34.129v145.622c0 8.288-6.716 15.004-15.004 15.004h-279.949c-8.288 0-15.004-6.716-15.004-15.004s6.716-15.004 15.004-15.004h264.949v-130.62h-243.546c-8.288 0-15.004-6.716-15.004-15.004v-393.082c0-8.288 6.716-15.004 15.004-15.004h105.86c8.288 0 15.004 6.716 15.004 15.004s-6.716 15.004-15.004 15.004h-90.857v363.074h582.161c8.288 0 15.006 6.716 15.006 15.004s-6.718 15.004-15.006 15.004h-259.477v215.606c0 46.786-38.063 84.85-84.849 84.85h-406.756c-46.786 0-84.85-38.064-84.85-84.85v-854.299c0-46.786 38.064-84.849 84.85-84.849h406.754c46.786 0 84.849 38.063 84.849 84.849v215.603h429.267c8.288 0 15.004 6.716 15.004 15.004v393.082c0.002 8.288-6.714 15.004-15.002 15.004zM957.771 559.842c-19.215 0-34.846 15.633-34.846 34.846 0 8.288-6.718 15.004-15.004 15.004h-568.077c-8.286 0-15.004-6.716-15.004-15.004 0-19.213-15.633-34.846-34.846-34.846-8.29 0-15.006-6.716-15.006-15.004v-193.679c0-8.286 6.716-15.004 15.006-15.004 19.213 0 34.846-15.631 34.846-34.846 0-8.288 6.716-15.004 15.004-15.004h568.075c8.286 0 15.004 6.716 15.004 15.004 0 19.215 15.631 34.846 34.846 34.846 8.288 0 15.004 6.718 15.004 15.004v193.679c0.002 8.288-6.714 15.004-15.002 15.004zM942.767 364.412c-23.733-5.643-42.455-24.365-48.098-48.098h-541.572c-5.643 23.733-24.365 42.455-48.098 48.098v167.174c23.733 5.643 42.455 24.365 48.098 48.098h541.57c5.643-23.733 24.365-42.455 48.098-48.098v-167.174h0.002zM623.885 564.316c-64.134 0-116.311-52.179-116.311-116.316 0-64.134 52.177-116.314 116.311-116.314 64.137 0 116.314 52.179 116.314 116.314 0 64.137-52.177 116.316-116.314 116.316zM623.885 361.694c-47.588 0-86.304 38.716-86.304 86.306 0 47.588 38.714 86.306 86.304 86.306 47.588 0 86.306-38.72 86.306-86.306 0-47.588-38.718-86.306-86.306-86.306z" />
<glyph unicode="&#xe94c;" glyph-name="plane" d="M965.167 561.173h-24.838c-10.157 38.507-25.41 75.285-45.502 109.696l17.557 17.594c11.102 11.059 17.222 25.809 17.235 41.534 0.017 15.748-6.095 30.543-17.207 41.657l-76.815 76.816c-11.072 11.070-25.839 17.168-41.583 17.168s-30.511-6.098-41.583-17.168l-17.585-17.586c-34.537 20.13-71.319 35.374-109.728 45.462v24.876c0 32.41-26.368 58.778-58.778 58.778h-108.681c-32.442 0-58.833-26.368-58.833-58.778v-24.878c-38.445-10.108-75.223-25.35-109.692-45.462l-17.626 17.588c-22.884 22.886-60.183 22.894-83.163 0l-76.84-76.846c-22.872-22.958-22.86-60.251 0.026-83.135l17.632-17.632c-20.146-34.492-35.402-71.264-45.506-109.683h-24.88c-32.41 0-58.778-26.391-58.778-58.833v-108.681c0-32.41 26.368-58.778 58.778-58.778h24.876c10.1-38.436 25.356-75.221 45.502-109.724l-17.626-17.589c-11.070-11.072-17.168-25.839-17.168-41.583s6.098-30.511 17.168-41.583l76.816-76.815c11.1-11.1 25.873-17.21 41.602-17.207h0.055c15.723 0.013 30.473 6.133 41.493 17.195l17.632 17.6c34.411-20.092 71.189-35.345 109.696-45.502v-24.838c0-32.442 26.391-58.833 58.833-58.833h108.681c32.41 0 58.778 26.391 58.778 58.833v24.834c38.526 10.15 75.317 25.404 109.739 45.5l17.549-17.551c11.072-11.117 25.852-17.235 41.609-17.235 15.759 0 30.537 6.121 41.583 17.207l76.789 76.791c11.117 11.072 17.235 25.85 17.235 41.609 0 15.757-6.121 30.537-17.207 41.581l-17.579 17.577c20.094 34.421 35.349 71.213 45.5 109.739h24.834c32.442 0 58.833 26.368 58.833 58.778v108.681c0 32.437-26.391 58.829-58.833 58.829zM984 393.66c0-10.353-8.45-18.778-18.833-18.778h-40.538c-9.353 0-17.457-6.483-19.511-15.607-10.123-44.958-27.761-87.509-52.431-126.462-5.007-7.906-3.866-18.227 2.754-24.845l28.71-28.71c3.526-3.514 5.466-8.226 5.466-13.271s-1.941-9.758-5.493-13.297l-76.843-76.843c-3.514-3.526-8.226-5.466-13.271-5.466s-9.758 1.941-13.295 5.493l-28.687 28.685c-6.62 6.622-16.939 7.761-24.843 2.754-38.957-24.67-81.506-42.308-126.464-52.431-9.124-2.054-15.607-10.159-15.607-19.511v-40.538c0-10.383-8.425-18.833-18.778-18.833h-108.681c-10.383 0-18.833 8.45-18.833 18.833v40.538c0 9.35-6.481 17.455-15.603 19.509-44.934 10.127-87.465 27.77-126.411 52.433-3.292 2.086-7.006 3.104-10.697 3.104-5.161 0-10.276-1.99-14.133-5.843l-28.783-28.725c-3.509-3.522-8.207-5.463-13.231-5.466-0.006 0-0.013 0-0.019 0-5.043 0-9.775 1.95-13.318 5.493l-76.815 76.815c-7.208 7.209-7.208 19.388-0.014 26.581l28.742 28.685c6.626 6.618 7.78 16.947 2.768 24.858-24.752 39.085-42.39 81.628-52.426 126.443-2.046 9.135-10.156 15.629-19.518 15.629h-40.586c-10.354 0-18.778 8.425-18.778 18.778v108.681c0 10.383 8.424 18.833 18.778 18.833h40.592c9.36 0 17.468 6.492 19.516 15.627 10.042 44.789 27.682 87.311 52.428 126.387 5.006 7.906 3.864 18.227-2.754 24.845l-28.742 28.742c-7.318 7.317-7.306 19.26 0 26.594l76.79 76.791c7.364 7.332 19.307 7.344 26.635 0.012l28.742-28.686c6.615-6.602 16.926-7.738 24.821-2.744 39.040 24.702 81.566 42.324 126.396 52.376 9.133 2.046 15.627 10.156 15.627 19.516v40.584c0 10.354 8.45 18.778 18.833 18.778h108.681c10.353 0 18.778-8.424 18.778-18.778v-40.592c0-9.362 6.494-17.47 15.629-19.518 44.77-10.026 87.319-27.648 126.458-52.38 7.9-4.99 18.208-3.844 24.826 2.766l28.687 28.686c7.204 7.208 19.383 7.208 26.594 0l76.815-76.816c3.548-3.546 5.5-8.284 5.493-13.335-0.004-5.026-1.946-9.724-5.508-13.274l-28.685-28.742c-6.607-6.62-7.742-16.93-2.741-24.83 24.666-38.946 42.306-81.476 52.435-126.411 2.054-9.122 10.159-15.603 19.509-15.603h40.538c10.383 0 18.833-8.45 18.833-18.833v-108.681h-0.002zM558.172 785.495c-71.825 9.778-146.231-3.898-209.491-38.502-9.692-5.301-13.25-17.457-7.949-27.144 5.301-9.694 17.459-13.25 27.145-7.949 116.22 63.573 262.882 42.477 356.661-51.305 56.791-56.791 88.066-132.29 88.066-212.589 0-80.297-31.275-155.782-88.068-212.55-56.764-56.789-132.245-88.062-212.544-88.062s-155.797 31.277-212.589 88.066c-94.119 94.116-115.019 241.152-50.825 357.564 5.333 9.675 1.815 21.839-7.857 27.172-9.673 5.335-21.837 1.818-27.172-7.855-34.925-63.339-48.823-137.903-39.136-209.958 10.010-74.451 43.451-141.954 96.706-195.209 64.346-64.346 149.89-99.782 240.875-99.782 90.987 0 176.516 35.439 240.828 99.78 64.348 64.318 99.787 149.85 99.787 240.834 0 90.982-35.437 176.529-99.782 240.875-53.107 53.101-120.414 86.51-194.654 96.614zM285.658 655.081c5.12 0 10.236 1.954 14.142 5.858l0.055 0.055c7.81 7.81 7.782 20.446-0.030 28.256s-20.501 7.782-28.311-0.028c-7.81-7.81-7.81-20.474 0-28.286 3.908-3.902 9.026-5.856 14.144-5.856zM420.945 279.744c34.927-40.297 64.702-59.887 91.025-59.887 26.351 0 56.139 19.59 91.068 59.887 25.156 29.022 47.671 63.053 58.818 83.881 34.871 64.975 47.744 120.373 45.909 197.583-0.243 10.18-8.094 18.551-18.236 19.447-52.051 4.591-116.055 39.501-163.068 88.934-3.776 3.968-9.015 6.214-14.492 6.214s-10.72-2.246-14.496-6.217c-47.008-49.434-111.012-84.341-163.063-88.932-10.148-0.894-18.003-9.278-18.236-19.462-1.773-77.205 11.098-132.595 45.909-197.566 11.202-20.875 33.745-54.908 58.861-83.883zM511.968 627.614c46.667-43.885 103.789-74.752 155.957-84.326-0.45-61.547-12.241-106.569-41.329-160.768-9.777-18.274-30.782-50.035-53.788-76.578-37.062-42.761-55.94-46.084-60.841-46.084-4.894 0-23.735 3.324-60.798 46.084-22.976 26.511-44.017 58.291-53.835 76.587-29.030 54.178-40.817 99.206-41.308 160.762 52.164 9.579 109.278 40.442 155.94 84.324zM460.525 427.667l33.901-25.963c3.616-2.769 7.893-4.122 12.151-4.122 5.472 0 10.908 2.238 14.839 6.579l64.798 71.603c7.409 8.19 6.78 20.838-1.41 28.252-8.192 7.409-20.836 6.784-28.25-1.41l-52.437-57.946-19.275 14.765c-8.764 6.707-21.321 5.050-28.041-3.718-6.711-8.77-5.047-21.323 3.723-28.041z" />
<glyph unicode="&#xe94d;" glyph-name="qa" d="M705.165 424.407c-0.011 0.026-0.023 0.045-0.034 0.070-1.922 4.087-5.227 7.552-9.641 9.609-10.007 4.67-21.911 0.339-26.579-9.675l-122.17-262.039c-4.666-10.012-0.333-21.909 9.677-26.577 2.733-1.276 5.609-1.875 8.437-1.875 7.533 0 14.748 4.275 18.14 11.552l38.15 81.826h131.75l38.129-81.824c3.392-7.279 10.609-11.554 18.14-11.554 2.831 0 5.702 0.602 8.437 1.875 10.012 4.666 14.347 16.563 9.679 26.577l-122.116 262.035zM639.793 267.298l47.241 101.323 47.217-101.323h-94.458zM1023.031-25.888l-54.985 170.377c28.179 56.442 38.818 121.562 29.982 184.378-9.551 67.906-40.297 129.5-88.907 178.112-69.003 69.003-164.593 101.463-260.352 89.66 7.475 62.549-3.667 124.894-32.446 180.873-5.050 9.824-17.107 13.696-26.933 8.642-9.824-5.050-13.692-17.108-8.64-26.932 54.65-106.303 34.539-234.557-50.044-319.14-84.659-84.663-217.474-104.393-322.982-47.983-4.786 2.558-10.406 3.059-15.568 1.397l-141.146-45.508 45.508 141.15c1.666 5.165 1.16 10.782-1.398 15.567-56.41 105.508-36.678 238.33 47.978 322.988 84.716 84.668 213.023 104.738 319.286 49.946 9.818-5.062 21.879-1.208 26.942 8.61 5.060 9.816 1.207 21.878-8.61 26.942-58.694 30.264-124.431 41.11-190.095 31.368-66.974-9.938-127.763-40.564-175.803-88.576-48.604-48.608-79.34-110.197-88.886-178.116-8.828-62.801 1.81-127.927 29.964-184.375l-54.932-170.381c-2.302-7.142-0.414-14.974 4.894-20.282 3.81-3.81 8.92-5.858 14.144-5.858 2.052 0 4.122 0.318 6.136 0.964l170.376 54.935c54.745-27.309 117.655-38.135 178.687-30.709-11.435-95.475 21.079-190.699 89.805-259.371 48.606-48.606 110.187-79.345 178.086-88.887 62.795-8.832 127.919 1.805 184.39 29.963l170.377-54.933c2.014-0.649 4.085-0.964 6.138-0.964 5.222 0 10.336 2.048 14.146 5.86 5.303 5.31 7.194 13.141 4.887 20.284zM831.84 44.493c-5.165 1.662-10.782 1.161-15.565-1.397-107.204-57.291-237.001-38.007-322.993 47.989-62.999 62.948-91.106 151.482-76.531 238.991 53.705 13.982 102.349 41.828 142.242 81.722 40.115 40.117 68.087 89.154 81.999 143.266 87.748 14.927 176.599-13.122 239.844-76.369 84.695-84.7 104.427-217.515 47.985-322.985-2.562-4.789-3.068-10.413-1.399-15.58l45.549-141.139-141.131 45.502zM479.104 647.411c0 85.818-69.79 155.633-155.573 155.633-85.813 0-155.63-69.815-155.63-155.633 0-85.786 69.816-155.575 155.63-155.575 35.674 0 68.557 12.098 94.831 32.369l50.839-50.842c3.906-3.904 9.024-5.858 14.142-5.858s10.238 1.954 14.142 5.858c7.81 7.808 7.812 20.474 0 28.286l-50.829 50.829c20.316 26.291 32.448 59.215 32.448 94.933zM418.074 581.060l-47.012 47.012c-7.81 7.806-20.474 7.808-28.284 0-7.81-7.81-7.812-20.474 0-28.286l46.995-46.999c-18.773-13.182-41.611-20.954-66.244-20.954-63.757 0-115.629 51.849-115.629 115.578 0 63.759 51.873 115.631 115.629 115.631 63.727 0 115.573-51.874 115.573-115.631 0.002-24.678-7.802-47.556-21.028-66.351zM545.175 825.004c5.062 0 10.129 1.91 14.022 5.74 7.876 7.744 7.983 20.406 0.239 28.284l-0.058 0.058c-7.746 7.872-20.378 7.954-28.256 0.208-7.874-7.744-7.953-20.436-0.207-28.312 3.915-3.982 9.086-5.978 14.259-5.978z" />
<glyph unicode="&#xe94e;" glyph-name="qr-code" d="M460.8-12.8h102.402c9.425 0 17.067 7.642 17.067 17.067s-7.642 17.067-17.067 17.067h-102.402c-9.425 0-17.067-7.642-17.067-17.067s7.642-17.067 17.067-17.067zM426.667 686.933h-170.667v-170.667h170.667v170.667zM392.533 550.4h-102.4v102.4h102.4v-102.4zM375.465 635.733h-68.267v-68.267h68.267v68.267zM256 209.067h170.667v170.667h-170.667v-170.667zM290.133 345.6h102.4v-102.4h-102.4v102.4zM375.465 328.533h-68.267v-68.267h68.267v68.267zM716.798 328.533h-68.267v-68.267h68.267v68.267zM580.269 243.2h-136.535v-34.133h136.535v34.133zM563.202 311.467h-34.135v-51.2h34.135v51.2zM563.2 362.667h-68.267v-34.133h68.267v34.133zM580.269 550.4h-85.333v17.067h102.4v119.467h-85.333v-34.133h51.2v-51.2h-17.067v34.133h-34.133v-34.133h-17.067v85.333h-34.133v-170.667h119.467v34.133zM768 686.933h-153.6v-34.133h153.6v34.133zM699.733 635.733h-34.133v-51.2h34.133v51.2zM494.933 294.4h-51.2v-34.133h51.2v34.133zM836.267 465.067v409.6c-0.055 47.104-38.229 85.278-85.333 85.333h-477.867c-47.104-0.055-85.278-38.229-85.333-85.333v-409.6h-187.733v-34.133h187.733v-409.6c0.055-47.104 38.229-85.278 85.333-85.333h477.867c47.104 0.055 85.278 38.229 85.333 85.333v409.6h187.733v34.133h-187.733zM802.133 21.333c0-28.277-22.923-51.2-51.2-51.2h-477.867c-28.277 0-51.2 22.923-51.2 51.2v17.067h580.267v-17.067zM802.133 72.533h-580.267v358.4h34.133v-34.133h34.133v34.133h51.2v-34.133h85.333v34.133h34.133v-51.2h-17.067v-68.267h34.133v68.267h51.2v34.133h-34.133v17.067h119.467v-17.067h34.133v17.067h17.067v-51.2h-68.267v-170.667h170.667v170.667h-68.267v51.2h34.133v-34.133h34.133v34.133h34.133v-358.4zM733.867 345.6v-102.4h-102.4v102.4h102.4zM802.133 465.067h-34.133v170.667h-34.133v-170.667h-85.333v17.067h68.267v34.133h-17.067v51.2h-34.133v-51.2h-17.067v34.133h-34.133v-85.333h-34.133v34.133h-34.133v-34.133h-51.2v34.133h-34.133v-34.133h-51.2v34.133h-34.133v-34.133h-34.133v34.133h-34.133v-34.133h-17.067v17.067h-34.133v-17.067h-34.133v358.4h580.267v-358.4zM802.133 857.6h-580.267v17.067c0 28.277 22.923 51.2 51.2 51.2h477.867c28.277 0 51.2-22.923 51.2-51.2v-17.067zM597.331 413.867h-34.133v-34.133h34.133v34.133zM648.533 635.733h-34.133v-34.133h34.133v34.133zM614.4 908.8h-102.4c-9.425 0-17.067-7.642-17.067-17.067s7.642-17.067 17.067-17.067h102.4c9.425 0 17.067 7.642 17.067 17.067s-7.642 17.067-17.067 17.067zM443.731 908.8h-34.133c-9.425 0-17.067-7.642-17.067-17.067s7.642-17.067 17.067-17.067h34.133c9.425 0 17.067 7.642 17.067 17.067s-7.642 17.067-17.067 17.067z" />
<glyph unicode="&#xe94f;" glyph-name="transaction" d="M802.135 106.667h-580.267c-9.421 0-17.067-7.629-17.067-17.067v-80.794c0-40.158 32.666-72.806 72.806-72.806h468.787c40.141 0 72.806 32.649 72.806 72.806v80.794c0 9.438-7.646 17.067-17.067 17.067zM785.069 8.806c0-21.316-17.34-38.671-38.656-38.671h-468.804c-21.335 0-38.675 17.355-38.675 38.671v63.729h546.135v-63.729zM563.2 38.4h-102.4c-9.419 0-17.067-7.627-17.067-17.065s7.648-17.067 17.067-17.067h102.4c9.421 0 17.067 7.629 17.067 17.067s-7.646 17.065-17.067 17.065zM716.8 38.4h-68.265c-9.421 0-17.067-7.627-17.067-17.065s7.646-17.067 17.067-17.067h68.265c9.421 0 17.067 7.629 17.067 17.067s-7.646 17.065-17.067 17.065zM375.467 38.4h-68.265c-9.421 0-17.067-7.627-17.067-17.065s7.646-17.067 17.067-17.067h68.265c9.421 0 17.067 7.629 17.067 17.067s-7.644 17.065-17.067 17.065zM746.413 960h-468.804c-40.141 0-72.806-32.648-72.806-72.806v-80.794c0-9.438 7.646-17.066 17.067-17.066h580.265c9.421 0 17.067 7.628 17.067 17.066v80.794c0.002 40.158-32.663 72.806-72.787 72.806zM785.069 823.466h-546.133v63.728c0 21.316 17.34 38.674 38.675 38.674h468.787c21.333 0 38.673-17.356 38.673-38.674v-63.728h-0.002zM597.331 891.734h-170.667c-9.419 0-17.065-7.628-17.065-17.066s7.646-17.066 17.065-17.066h170.667c9.421 0 17.067 7.628 17.067 17.066s-7.646 17.066-17.067 17.066zM460.8 721.067h-443.734c-9.42 0-17.066-7.627-17.066-17.065v-307.2c0-9.438 7.646-17.067 17.066-17.067h443.734c9.421 0 17.067 7.629 17.067 17.067v307.2c0 9.438-7.646 17.065-17.067 17.065zM443.733 413.869h-409.599v273.067h409.599v-273.067zM967.255 516.267h-364.373c-31.3 0-56.747-25.446-56.747-56.747v-227.84c0-31.3 25.446-56.747 56.747-56.747h364.373c31.3 0 56.747 25.446 56.747 56.747v227.84c0 31.3-25.446 56.747-56.747 56.747zM989.869 231.68c0-12.459-10.14-22.613-22.615-22.613h-364.371c-12.476 0-22.615 10.153-22.615 22.613v227.84c0 12.459 10.14 22.613 22.615 22.613h364.373c12.476 0 22.615-10.155 22.615-22.613v-227.84h-0.002zM238.933 635.733c-47.052 0-85.334-38.278-85.334-85.333 0-47.051 38.28-85.333 85.334-85.333s85.333 38.281 85.333 85.333c-0.002 47.053-38.283 85.333-85.333 85.333zM238.933 499.2c-28.228 0-51.2 22.972-51.2 51.2s22.972 51.2 51.2 51.2c28.228 0 51.2-22.972 51.2-51.2s-22.972-51.2-51.2-51.2zM119.466 721.067h-102.4c-9.42 0-17.066-7.627-17.066-17.065v-102.4c0-9.438 7.646-17.067 17.066-17.067 65.878 0 119.466 53.606 119.466 119.467 0.002 9.438-7.644 17.065-17.066 17.065zM34.134 620.393v66.541h66.56c-6.81-33.382-33.178-59.75-66.56-66.541zM460.8 721.067h-102.4c-9.421 0-17.067-7.627-17.067-17.065 0-65.86 53.589-119.467 119.467-119.467 9.419 0 17.065 7.629 17.065 17.067v102.4c0 9.438-7.646 17.065-17.065 17.065zM443.733 620.393c-33.382 6.79-59.75 33.158-66.56 66.541h66.56v-66.541zM460.8 516.267c-65.879 0-119.467-53.606-119.467-119.467 0-9.438 7.646-17.067 17.067-17.067h102.4c9.419 0 17.065 7.629 17.065 17.067v102.4c0 9.438-7.646 17.067-17.065 17.067zM443.733 413.867h-66.56c6.81 33.38 33.178 59.748 66.56 66.541v-66.541zM17.066 516.267c-9.42 0-17.066-7.629-17.066-17.067v-102.4c0-9.438 7.646-17.067 17.066-17.067h102.4c9.42 0 17.066 7.629 17.066 17.067 0.002 65.86-53.588 119.467-119.466 119.467zM34.134 413.867v66.541c33.382-6.793 59.75-33.161 66.56-66.541h-66.56zM967.255 516.267h-364.373c-31.3 0-56.747-25.446-56.747-56.747v-62.72c0-9.438 7.646-17.067 17.067-17.067h443.733c9.421 0 17.067 7.629 17.067 17.067v62.72c0 31.3-25.446 56.747-56.747 56.747zM989.869 413.867h-409.602v45.653c0 12.459 10.14 22.613 22.615 22.613h364.373c12.476 0 22.615-10.155 22.615-22.613v-45.653h-0.002zM699.733 294.4h-68.267c-9.419 0-17.067-7.627-17.067-17.065s7.648-17.067 17.067-17.067h68.267c9.419 0 17.067 7.629 17.067 17.067s-7.648 17.065-17.067 17.065zM938.665 294.4h-68.265c-9.421 0-17.067-7.627-17.067-17.065s7.646-17.067 17.067-17.067h68.265c9.421 0 17.067 7.629 17.067 17.067 0.002 9.438-7.644 17.065-17.067 17.065zM802.131 294.4h-34.133c-9.419 0-17.065-7.627-17.065-17.065s7.646-17.067 17.065-17.067h34.133c9.421 0 17.067 7.629 17.067 17.067s-7.646 17.065-17.067 17.065zM602.882 482.133h199.253c9.421 0 17.067 7.629 17.067 17.067v307.2c0 9.438-7.646 17.066-17.067 17.066h-580.267c-9.421 0-17.067-7.628-17.067-17.066v-102.4c0-9.438 7.646-17.067 17.067-17.067h221.865v-273.065h-221.865c-9.421 0-17.067-7.629-17.067-17.067v-307.2c0-9.438 7.646-17.067 17.067-17.067h580.265c9.421 0 17.067 7.629 17.067 17.067v102.398c0 9.438-7.646 17.067-17.067 17.067h-199.251c-12.476 0-22.613 10.153-22.613 22.613v227.84c0 12.459 10.138 22.613 22.613 22.613zM602.882 174.933h182.187v-68.265h-546.133v273.065h221.867c9.421 0 17.067 7.629 17.067 17.067v307.2c0 9.438-7.646 17.067-17.067 17.067h-221.867v68.268h546.135v-273.065h-182.189c-31.283 0-56.747-25.446-56.747-56.747v-227.84c0-31.302 25.463-56.749 56.747-56.749zM102.399 328.533c-9.42 0-17.066-7.627-17.066-17.065v-153.6c0-9.44 7.646-17.067 17.066-17.067s17.066 7.627 17.066 17.067v153.6c0 9.436-7.646 17.065-17.066 17.065zM114.468 323.531c-6.656 6.671-17.476 6.671-24.132 0l-51.2-51.2c-6.674-6.675-6.674-17.461 0-24.132 3.328-3.328 7.698-5.001 12.066-5.001 4.37 0 8.738 1.673 12.066 5.001l51.2 51.2c6.674 6.673 6.674 17.459 0 24.132zM165.666 272.331l-51.2 51.2c-6.656 6.671-17.476 6.671-24.132 0-6.674-6.675-6.674-17.461 0-24.132l51.2-51.2c3.328-3.328 7.698-5.001 12.066-5.001 4.37 0 8.738 1.673 12.066 5.001 6.674 6.673 6.674 17.459 0 24.132zM921.602 755.2c-9.419 0-17.067-7.628-17.067-17.065v-153.602c0-9.438 7.648-17.065 17.067-17.065 9.421 0 17.067 7.627 17.067 17.065v153.602c0 9.437-7.646 17.065-17.067 17.065zM984.864 647.802c-6.656 6.675-17.476 6.675-24.132 0l-51.2-51.2c-6.675-6.673-6.675-17.459 0-24.132 3.328-3.328 7.697-5.001 12.066-5.001s8.738 1.673 12.066 5.001l51.2 51.2c6.673 6.673 6.673 17.459 0 24.132zM933.664 596.602l-51.2 51.2c-6.656 6.675-17.476 6.675-24.132 0-6.671-6.673-6.671-17.459 0-24.132l51.2-51.2c3.328-3.328 7.699-5.001 12.066-5.001 4.369 0 8.738 1.673 12.066 5.001 6.673 6.673 6.673 17.459 0 24.132z" />
<glyph unicode="&#xe950;" glyph-name="bank" d="M32 708.098l463.531 223.188 496.469-222.548v-116.736h-960v116.096zM96 656.002h832v11.264l-431.531 193.45-400.469-192.81v-11.904zM928 144h-832v-64h832v64zM32 32h960v-64h-960v64zM176 528h-64v-320h64v320zM848 528h64v-320h-64v320zM720 528h-64v-320h64v320zM304 528h64v-320h-64v320zM544 528h-64v-320h64v320z" />
<glyph unicode="&#xe951;" glyph-name="currency" d="M946.535 633.513c19.533 47.311 19.412 99.798-0.681 135.688-19.326 40.685-58.314 82.568-104.419 112.131-51.194 32.825-104.323 46.936-149.604 39.717-33.531-5.348-73.408-27.252-112.333-55.519-5.145 0.192-10.378 0.321-15.701 0.321-35.616 0-70.94-4.358-105.161-12.933-9.172 12.371-19.569 23.931-31.148 34.495-5.998 5.471-15.291 5.048-20.762-0.95-5.471-5.996-5.047-15.291 0.951-20.762 29.372-26.801 50.235-60.779 60.665-98.654-8.85-9.33-16.894-18.252-23.905-26.466l-12.89 12.518c-1.645 1.597-3.44 2.981-5.337 4.164-20.3 70.853-84.733 119.726-159.14 119.726-91.296 0-165.571-74.283-165.571-165.591 0-91.295 74.275-165.57 165.571-165.57 21.084 0 41.76 3.994 61.068 11.653-3.256-18.603-5.319-34.505-6.602-47.624-17.684-4.773-35.959-7.21-54.471-7.21-115.11 0-208.757 93.648-208.757 208.756 0.004 115.11 93.651 208.757 208.759 208.757 33.717 0 65.864-7.776 95.545-23.11 7.212-3.727 16.079-0.899 19.803 6.312s0.899 16.078-6.313 19.802c-33.414 17.264-71.12 26.39-109.035 26.39-131.315 0-238.149-106.834-238.149-238.151 0-84.296 44.024-158.498 110.286-200.834-4.439-24.965-6.69-50.481-6.69-76.004 0-69.371 16.751-137.824 48.547-198.944-19.598-47.466-19.42-100.143 0.87-136.044 17.278-36.172 49.954-73.293 89.831-101.978 42.837-30.816 89.569-48.972 131.586-51.131 0.257-0.013 0.512-0.019 0.767-0.019 7.77 0 14.261 6.094 14.666 13.945 0.414 8.106-5.818 15.013-13.926 15.431-36.448 1.872-77.619 18.077-115.929 45.635-12.562 9.036-24.304 18.942-34.92 29.366 9.747-1.645 20.62-2.353 32.728-1.856 40.507 1.661 94.599 31.19 160.772 87.765 52.498 44.885 99.838 95.83 123.388 122.203 5.245 5.877 4.926 14.844-0.725 20.332l-27.002 26.219c-0.552 0.535-0.777 1.197-0.671 1.966 0.107 0.759 0.499 1.323 1.162 1.68 91.796 49.252 192.84 68.307 232.040 74.219 0.876 0.136 1.503-0.236 1.868-0.573 0.499-0.451 0.738-1.009 0.702-1.655-4.901-91.957-42.237-200.702-58.071-243.217-0.102-0.276-0.414-1.116-1.58-1.381-0.794-0.18-1.5 0.017-2.088 0.589l-24.319 23.615c-2.978 2.892-7.047 4.38-11.187 4.123-4.144-0.27-7.981-2.278-10.562-5.53-42.72-53.812-140.271-146.658-213.991-175.039-7.573-2.915-11.35-11.421-8.434-18.996 2.917-7.576 11.425-11.352 18.998-8.434 27.337 10.526 55.814 28.183 81.331 46.734 5.066-0.186 10.209-0.311 15.433-0.311 115.202 0 223.506 44.862 304.966 126.32 81.458 81.46 126.32 189.766 126.32 304.966 0.002 69.375-16.75 137.83-48.55 198.951zM920.020 755.182c0.010-0.018 0.023-0.033 0.031-0.049 12.744-22.511 14.873-55.375 6.765-87.687-29.464 45.8-67.507 85.873-111.756 117.667 9.692 3.363 18.756 5.338 27.015 5.679 37.474 1.534 63.691-10.439 77.945-35.61zM541.55 835.839c-17.615-14.732-34.484-30.125-49.856-45.128-4.395 12.471-9.818 24.501-16.198 36.008 21.657 4.854 43.754 7.899 66.054 9.12zM435.392 708.391c2.978-2.894 7.043-4.391 11.187-4.123s7.981 2.276 10.564 5.53c53.501 67.411 169.508 171.091 239.317 182.226 38.151 6.077 83.997-6.508 129.112-35.436 17.454-11.191 33.738-24.248 48.024-38.283-9.747 1.644-20.61 2.354-32.724 1.856-40.507-1.666-94.599-31.195-160.774-87.772-52.456-44.847-99.823-95.805-123.39-122.19-5.247-5.877-4.932-14.844 0.723-20.332l27.006-26.229c0.552-0.535 0.775-1.193 0.669-1.958-0.107-0.754-0.495-1.319-1.162-1.676-91.704-49.219-192.817-68.307-232.032-74.23-0.882-0.134-1.509 0.238-1.877 0.573-0.499 0.453-0.736 1.014-0.702 1.659 4.88 91.807 42.218 200.656 58.048 243.196 0.28 0.754 0.819 1.227 1.605 1.402 0.188 0.042 0.372 0.065 0.55 0.065 0.573 0 1.087-0.219 1.536-0.654l24.321-23.623zM267.072 575.218c-75.089 0-136.178 61.089-136.178 136.177 0 75.1 61.089 136.197 136.178 136.197 57.864 0 108.373-35.939 127.82-89.103-6.882-3.565-12.282-9.571-15.061-17.041-21.636-58.15-35.56-107.582-44.511-147.917-20.666-11.989-44.13-18.313-68.249-18.313zM166.518 495.549c20.462-9.569 42.493-16.317 65.602-19.73-1.195-2.863-2.247-5.699-3.072-8.418-5.16-17.057-6.733-32.743-4.669-46.605 3.444-23.412 23.876-40.601 47.537-40.118 27.615 0.688 96.041-1.749 134.518-38.49 6.756-6.46 10.353-15.498 9.866-24.835-1.778-35.662-14.263-125.34-90.269-206.762-45.737 33.65-84.208 76.808-112.207 126.261-33.963 59.986-51.915 128.351-51.915 197.711 0 20.444 1.552 40.881 4.609 60.984zM285.531 78.338c-37.462-1.546-63.697 10.439-77.942 35.606-0.028 0.048-0.061 0.090-0.088 0.14-12.702 22.507-14.817 55.329-6.72 87.604 29.466-45.804 67.513-85.88 111.766-117.676-9.69-3.362-18.756-5.337-27.017-5.674zM529.757 335.034c-8.986-4.823-14.952-13.389-16.369-23.504-1.398-9.973 2.079-20.114 9.302-27.13l16.844-16.355c-54.059-59.394-118.207-120.144-173.689-156.407 66.372 82.488 78.029 168.375 79.816 204.223 0.93 17.855-5.962 35.196-18.917 47.58-19.218 18.353-65.001 48.828-155.516 46.625-8.777-0.192-16.476 6.248-17.77 15.032-1.419 9.552-0.165 20.923 3.72 33.769 1.078 3.544 3.268 8.898 6.372 14.424 1.172-0.019 2.343-0.046 3.519-0.046 18.292 0 36.394 2.086 54.034 6.184 1.574-5.645 4.706-10.798 9.178-14.856 5.889-5.346 13.439-8.228 21.249-8.228 1.582 0 3.179 0.119 4.771 0.357 40.726 6.152 145.793 26.005 241.541 77.398 8.988 4.821 14.957 13.389 16.371 23.5 1.415 10.119-1.973 20.004-9.3 27.117l-16.848 16.363c9.713 10.668 19.757 21.383 30.014 31.989 0.903-10.202 4.361-20.252 10.474-29.073 10.792-15.559 21.694-29.755 32.373-42.172 13.416-15.673 34.505-23.448 55.072-20.296 22.482 3.475 55.179 9.132 83.312 16.355 8.798 2.282 18.187-1.91 22.342-9.987 3.304-6.397 5.82-12.948 7.477-19.477 2.038-8.027-0.984-16.338-7.68-21.165-16.762-12.043-56.188-34.749-131.933-51.518-28.781-6.384-48.007-34.212-43.767-63.363 0.426-2.926 0.917-5.862 1.442-8.798-37.311-11.694-78.137-27.458-117.434-48.542zM771.298 412.415c-19.65-2.961-54.314-9.13-95.681-20.493-0.257 1.563-0.554 3.128-0.782 4.687-2.035 13.993 7.208 27.36 21.038 30.425 76.817 17.009 120.017 40.028 142.744 56.36 16.572 11.943 24.031 32.457 19.003 52.26-2.209 8.694-5.521 17.352-9.841 25.711-10.545 20.497-33.514 30.766-55.812 24.979-26.944-6.917-58.627-12.392-80.443-15.765-10.581-1.622-21.406 2.347-28.287 10.388-10.044 11.676-20.315 25.063-30.526 39.777-8.328 12.014-7.137 28.438 2.834 39.056 47.338 50.464 101.579 83.073 141.159 102.296 47.886-34.138 88.081-78.621 117.075-129.823 33.963-59.981 51.915-128.349 51.915-197.709 0-81.82-24.599-157.991-66.756-221.552-49.472-0.472-98.442 11.822-117.858 17.356-0.061 0.017-0.123 0.040-0.184 0.059 12.689 46.345 24.102 99.855 26.731 149.134 0.506 9.483-3.254 18.595-10.311 24.994-7.091 6.434-16.583 9.293-26.016 7.86zM594.321 40.109c12.165 10.464 24.279 21.496 35.934 32.682 22.869-3.806 45.326-9.588 67.131-17.266-35.067-12.397-72.347-20.064-111.077-22.212 2.761 2.311 5.44 4.585 8.012 6.796zM736.471 71.703c-26.104 11.408-53.265 20.173-81.099 26.191 10.048 10.464 19.439 20.789 27.809 30.634l12.873-12.499c7.713-7.492 18.578-10.545 29.061-8.169 10.457 2.37 18.925 9.787 22.639 19.815 6.169 16.562 15.513 42.933 25.021 74.503 0.084-0.025 0.163-0.056 0.251-0.082 17.893-5.099 59.394-15.602 104.828-18.004-37.844-47.353-86.143-85.997-141.383-112.391zM291.393 726.442c-18.727 5.452-39.487 12.069-51.48 19.815-5.59 3.612-5.548 9.408-5.026 12.541 1.097 6.582 6.506 14.666 18.39 17.615 26.125 6.48 42.943-5.193 43.882-5.867 6.457-4.809 15.596-3.525 20.476 2.9 4.911 6.463 3.651 15.683-2.815 20.593-0.767 0.584-13.513 10.031-34.279 12.886v7.866c0 8.117-6.581 14.697-14.698 14.697s-14.698-6.58-14.698-14.697v-8.773c-1.628-0.316-3.271-0.662-4.947-1.078-21.178-5.254-37-21.47-40.306-41.31-2.822-16.925 4.102-33.043 18.070-42.065 12.229-7.902 29.385-14.666 59.214-23.349 15.487-4.508 23.454-13.634 21.859-25.042-2.43-17.389-22.049-26.871-39.274-26.965-19.88-0.102-27.734 0.616-44.563 9.682-7.141 3.849-16.060 1.179-19.909-5.968-3.851-7.143-1.178-16.058 5.967-19.909 17.154-9.241 28.969-12.138 43.886-12.932v-9.078c0-8.117 6.581-14.698 14.698-14.698s14.698 6.581 14.698 14.698v10.127c31.359 5.632 50.458 28.463 53.605 50.97 3.666 26.208-13.116 48.711-42.753 57.34z" />
<glyph unicode="&#xe952;" glyph-name="hand" d="M995.181 268.715c-20.93 33.877-65.156 44.781-102.857 25.372l-170.901-87.744c-14.18 15.093-34.291 24.548-56.576 24.548h-116.422c-6.976 0-8.582 0.567-8.832 0.683-0.966 0.442-3.959 3.26-6.596 5.747l-1.124 1.058c-93.551 88.119-172.702 82.543-262.797 47.055-14.694-5.824-15.258-5.847-29.666-6.483l-27.799-0.032c-7.026 22.539-28.070 38.942-52.868 38.942h-85.634c-30.53 0-55.368-24.864-55.368-55.426v-224.617c0-30.532 24.838-55.371 55.368-55.371h85.634c24.82 0 45.878 16.416 52.886 38.963h49.216c4.324 0 4.324 0 9.167-1.357 1.877-0.525 4.194-1.175 7.174-1.963l221.476-59.238c9.751-2.645 18.692-5.244 27.341-7.755 28.243-8.205 51.977-15.098 76.71-15.095 27.893 0 57.058 8.77 95.377 34.325 0.169 0.113 0.337 0.228 0.503 0.348l273.086 194.468c34.633 24.672 44.736 69.195 23.501 103.571zM174.11 37.818c0-8.331-7.038-15.371-15.368-15.371h-85.634c-8.33 0-15.368 7.040-15.368 15.371v224.617c0 8.363 7.038 15.426 15.368 15.426h85.634c8.33 0 15.368-7.063 15.368-15.426v-224.617zM948.476 197.726l-272.834-194.291c-56.629-37.702-80.623-30.731-138.479-13.922-8.819 2.56-17.937 5.207-28.098 7.962l-221.583 59.268c-2.797 0.742-4.945 1.344-6.684 1.83-7.699 2.155-10.581 2.837-19.953 2.837h-46.735v177.489h24.529c0.297 0 0.593 0.004 0.89 0.019l1.641 0.073c17.549 0.774 22.46 1.261 42.601 9.244 80.070 31.541 141.845 35.277 220.685-38.982l1.101-1.039c13.058-12.309 20.591-17.323 42.867-17.323h116.422c20.781 0 37.69-16.937 37.69-37.751 0-20.781-16.909-37.69-37.69-37.69h-188.666c-11.046 0-20-8.956-20-20s8.954-20 20-20h188.666c42.837 0 77.69 34.852 77.69 77.69 0 6.193-0.749 12.209-2.123 17.986l170.202 87.386c16.529 8.512 39.2 7.533 50.537-10.82 10.014-16.205 4.563-37.685-12.674-49.965zM595.503 506.479c0-11.044 8.954-20 20-20h110.453c11.044 0 20 8.956 20 20v66.449h66.387c11.046 0 20 8.958 20 20v110.453c0 11.044-8.954 20-20 20h-66.387v66.39c0 11.044-8.956 20-20 20h-110.453c-11.046 0-20-8.956-20-20v-66.39h-66.445c-11.046 0-20-8.956-20-20v-110.455c0-11.042 8.954-20 20-20h66.445v-66.447zM549.056 612.926v70.455h66.445c11.046 0 20 8.956 20 20v66.39h70.453v-66.39c0-11.044 8.954-20 20-20h66.387v-70.455h-66.387c-11.046 0-20-8.956-20-20v-66.449h-70.453v66.449c0 11.044-8.954 20-20 20h-66.445zM438.901 500.796c6.178-9.154 18.609-11.567 27.765-5.387s11.569 18.611 5.389 27.765c-20.030 29.673-34.308 56.986-41.318 79.085-2.515 7.793-2.479 11.051-2.381 19.759 0.023 1.824 0.043 3.782 0.043 5.929v159.805c0.109 4.822 0.115 8.87 0.124 12.298 0.004 2.22 0.009 4.612 0.055 6.482 1.621 0.91 3.71 2.022 5.649 3.052 2.833 1.508 6.319 3.364 10.391 5.63l226.078 102.81 226.084-102.814c4.021-2.236 7.452-4.058 10.374-5.612 1.946-1.034 4.043-2.146 5.666-3.058 0.043-1.852 0.047-4.204 0.051-6.386 0.006-3.342 0.013-7.486 0.122-12.404v-159.807c0-2.148 0.023-4.107 0.043-5.933 0.098-8.704 0.137-11.959-2.402-19.823-26.923-84.442-145.084-215.806-219.401-260.169-7.505-4.514-14.225-6.707-20.54-6.707s-13.033 2.193-20.617 6.752c-17.728 10.551-38.78 26.699-60.879 46.694-8.19 7.411-20.836 6.782-28.25-1.41-7.411-8.192-6.78-20.838 1.412-28.25 24.375-22.054 47.002-39.351 67.183-51.362 13.907-8.361 27.366-12.425 41.15-12.425s27.245 4.064 41.097 12.39c81.69 48.764 207.076 188.623 236.93 282.263 4.525 14.007 4.431 22.167 4.311 32.499-0.019 1.687-0.038 3.492-0.038 5.476v160.033c0 0.152-0.002 0.302-0.004 0.456-0.107 4.64-0.111 8.518-0.117 11.792-0.038 25.866-4.070 32.548-26.953 44.708-2.891 1.538-6.315 3.354-10.368 5.618-0.48 0.27-0.971 0.518-1.472 0.744l-235.104 106.912c-5.261 2.394-11.298 2.394-16.559 0l-235.106-106.916c-0.506-0.228-1.003-0.48-1.487-0.752-4.062-2.272-7.488-4.096-10.385-5.634-22.837-12.152-26.863-18.846-26.916-44.766-0.006-3.256-0.013-7.106-0.119-11.708-0.002-0.152-0.004-0.302-0.004-0.456v-160.029c0-1.982-0.019-3.789-0.041-5.474-0.117-10.332-0.209-18.494 4.282-32.405 8.237-25.967 23.804-55.998 46.261-89.267zM497.346 453.769c-7.808-7.81-7.808-20.474 0-28.286l0.060-0.058c3.898-3.898 8.996-5.845 14.099-5.845 5.12 0 10.244 1.961 14.157 5.875 7.81 7.81 7.78 20.503-0.030 28.314s-20.476 7.81-28.286 0z" />
<glyph unicode="&#xe953;" glyph-name="mobile-banking" d="M695.902 949.551h267.494c27.652 0 50.155-22.503 50.155-50.155v-434.678c0-27.652-22.503-50.155-50.155-50.155h-267.494c-27.652 0-50.155 22.503-50.155 50.155v434.678c0 27.652 22.503 50.155 50.155 50.155zM963.396 448c9.212 0 16.718 7.49 16.718 16.718v33.437h-300.931v-33.437c0-9.229 7.507-16.718 16.718-16.718h267.494zM679.184 531.592h300.931v300.931h-300.931v-300.931zM679.184 865.959h300.931v33.437c0 9.229-7.507 16.718-16.718 16.718h-267.494c-9.212 0-16.718-7.49-16.718-16.718v-33.437zM562.155 264.098c9.229 0 16.718 7.473 16.718 16.718v66.873c0 7.323-4.748 13.776-11.736 15.949l-267.494 83.592c-3.243 1.020-6.721 1.020-9.981 0l-267.494-83.592c-6.972-2.173-11.72-8.627-11.72-15.949v-66.873c0-9.245 7.49-16.718 16.718-16.718h16.718v-217.339h-16.718c-9.229 0-16.718-7.473-16.718-16.718v-66.873c0-9.245 7.49-16.718 16.718-16.718h534.988c9.229 0 16.718 7.473 16.718 16.718v66.873c0 9.245-7.49 16.718-16.718 16.718h-16.718v217.339h16.718zM43.886-20.114v33.437h501.551v-33.437h-501.551zM77.322 46.759v217.339h33.437v-217.339h-33.437zM144.196 46.759v217.339h33.437v-217.339h-33.437zM211.069 46.759v217.339h33.437v-217.339h-33.437zM277.943 46.759v217.339h33.437v-217.339h-33.437zM344.816 46.759v217.339h33.437v-217.339h-33.437zM411.69 46.759v217.339h33.437v-217.339h-33.437zM478.563 46.759v217.339h33.437v-217.339h-33.437zM528.718 297.535h-484.833v37.867l250.776 78.376 250.776-78.376v-37.867h-16.718zM311.38 364.408h-33.437v-33.437h33.437v33.437zM918.139 760.75l-71.772-71.772-38.335 38.335c-6.537 6.537-17.103 6.537-23.64 0l-66.873-66.873 23.64-23.64 55.054 55.054 38.335-38.335c6.537-6.537 17.103-6.537 23.64 0l83.592 83.592-23.64 23.639zM578.873 799.086h33.437v-33.437h-33.437v33.437zM545.437 799.086h-33.437v-33.437h33.437v33.437zM445.127 799.086h33.437v-33.437h-33.437v33.437zM411.69 799.086h-33.437v-33.437h33.437v33.437zM311.38 799.086h33.437v-33.437h-33.437v33.437zM277.943 799.086h-33.437v-33.437h33.437v33.437zM177.633 799.086h33.437v-33.437h-33.437v33.437zM144.196 799.086h-33.437v-33.437h33.437v33.437zM110.759 732.212h33.437v-33.437h-33.437v33.437zM144.196 665.339h-33.437v-33.437h33.437v33.437zM110.759 598.465h33.437v-33.437h-33.437v33.437zM144.196 531.592h-33.437v-33.437h33.437v33.437zM110.759 464.718h33.437v-33.437h-33.437v33.437zM612.31 113.633h-33.437v-33.437h33.437v33.437zM645.747 113.633h33.437v-33.437h-33.437v33.437zM746.057 113.633h-33.437v-33.437h33.437v33.437zM779.494 113.633h33.437v-33.437h-33.437v33.437zM879.804 113.633h-33.437v-33.437h33.437v33.437zM913.241 113.633h33.437v-33.437h-33.437v33.437zM946.678 180.506h-33.437v-33.437h33.437v33.437zM913.241 247.38h33.437v-33.437h-33.437v33.437zM946.678 314.253h-33.437v-33.437h33.437v33.437zM913.241 381.127h33.437v-33.437h-33.437v33.437z" />
<glyph unicode="&#xe954;" glyph-name="smartphone" d="M974.451 728.774h-379.87v148.645c0 45.535-37.045 82.581-82.581 82.581h-429.419c-45.535 0-82.581-37.046-82.581-82.581v-858.838c0-45.536 37.046-82.581 82.581-82.581h429.419c45.536 0 82.581 37.045 82.581 82.581v247.742h-33.033v-165.163h-528.516v693.678h528.516v-66.064h-148.646c-27.317 0-49.547-22.231-49.547-49.549v-240.905l-138.967-138.965h750.063c27.317 0 49.549 22.229 49.549 49.547v330.323c0 27.317-22.231 49.549-49.549 49.549zM561.549 68.13v-49.549c0-27.317-22.231-49.549-49.549-49.549h-429.419c-27.318 0-49.548 22.231-49.548 49.549v49.549h528.516zM33.032 827.871v49.548c0 27.318 22.231 49.548 49.548 49.548h429.419c27.317 0 49.549-22.231 49.549-49.548v-49.548h-528.516zM990.967 348.902c0-9.116-7.398-16.516-16.516-16.516h-670.323l92.258 92.26v254.579c0 9.118 7.401 16.516 16.516 16.516h561.549c9.118 0 16.516-7.398 16.516-16.516v-330.323zM858.839 530.581c-18.219 0-33.033 14.814-33.033 33.030 0 18.219 14.814 33.033 33.033 33.033 18.217 0 33.030-14.814 33.030-33.033h33.033c0 36.435-29.63 66.065-66.063 66.065-36.435 0-66.065-29.63-66.065-66.065 0-36.433 29.63-66.063 66.065-66.063 18.217 0 33.030-14.816 33.030-33.033 0-18.219-14.814-33.033-33.030-33.033-18.219 0-33.033 14.814-33.033 33.033h-33.033c0-36.435 29.63-66.065 66.065-66.065 36.433 0 66.063 29.63 66.063 66.065 0 36.433-29.63 66.065-66.063 66.065zM495.484 563.612c0-18.217 14.816-33.030 33.033-33.030 36.435 0 66.065-29.632 66.065-66.065 0-36.435-29.63-66.065-66.065-66.065s-66.065 29.63-66.065 66.065h33.033c0-18.219 14.816-33.033 33.033-33.033s33.033 14.814 33.033 33.033c0 18.217-14.816 33.033-33.033 33.033-36.435 0-66.065 29.63-66.065 66.063 0 36.435 29.63 66.065 66.065 66.065s66.065-29.63 66.065-66.065h-33.033c0 18.219-14.816 33.033-33.033 33.033s-33.033-14.814-33.033-33.033zM713.811 629.677l-20.134-80.548-20.132 80.548h-45.933v-214.709h33.033v130.097l33.033-132.128 33.033 132.128v-130.097h33.033v214.709h-45.931zM231.226 35.095h132.13v-33.030h-132.13v33.030zM528.516 266.323h-33.033v-33.033h33.033v33.033zM429.419 266.323h33.033v-33.033h-33.033v33.033zM396.386 266.323h-33.030v-33.033h33.030v33.033zM297.291 266.323h33.033v-33.033h-33.033v33.033z" />
<glyph unicode="&#xe955;" glyph-name="tax" horiz-adv-x="773" d="M508.819 661.345c2.736 3.877 4.907 8.123 6.441 12.612 6.882-1.16 13.446-3.78 19.226-7.69 11.632-7.86 25.274-12.219 39.305-12.578 4.435 0.017 8.85 0.424 13.21 1.208 18.359 3.135 34.726 13.437 45.486 28.636 5.762 9.086 15.084 15.322 25.673 17.193 10.595 1.86 21.485-0.809 29.999-7.381 15.324-10.604 34.222-14.685 52.548-11.346l-5.82 32.931c-10.587-1.87-21.477 0.807-29.993 7.371-31.934 21.853-75.477 14.171-98.016-17.283-5.764-9.084-15.086-15.322-25.684-17.191-4.823-0.972-9.812-0.848-14.595 0.351 9.893 2.612 19.044 7.469 26.751 14.196 14.334 11.893 23.356 29.004 25.078 47.551 0.449 10.751 5.404 20.808 13.657 27.714 8.205 6.988 18.996 10.123 29.658 8.629 18.587-1.69 37.060 4.253 51.175 16.449l-21.542 25.6c-8.336-6.735-19.021-9.837-29.667-8.612-38.58 2.947-72.457-25.47-76.252-63.984-0.441-10.734-5.39-20.792-13.617-27.707-8.238-6.905-18.996-10.039-29.65-8.62-10.432 0.809-20.923-0.587-30.774-4.113-4.606 7.983-11.323 14.547-19.414 18.963l74.752 149.323c2.596 5.2 2.311 11.371-0.759 16.31-3.070 4.931-8.482 7.918-14.286 7.886-11.78-0.106-23.086 4.604-31.299 13.037-29.518 27.192-74.946 27.192-104.456 0-8.294-8.359-19.586-13.053-31.355-13.053-11.78 0-23.063 4.694-31.355 13.053-29.543 27.176-74.982 27.176-104.523 0-8.246-8.441-19.586-13.151-31.38-13.037-5.797 0-11.184-2.996-14.229-7.927-3.053-4.923-3.331-11.086-0.735-16.269l74.661-149.323c-12.652-6.752-21.771-18.645-24.996-32.622-3.225-13.974-0.245-28.662 8.179-40.277-153.29-41.175-259.944-180.002-260.221-338.729v-300.933c0.049-46.149 37.445-83.535 83.592-83.594h601.865c46.141 0.059 83.535 37.445 83.594 83.594v300.933c-0.286 158.726-106.939 297.554-260.232 338.729zM269.602 894.702c8.301 8.359 19.592 13.061 31.38 13.061 11.778 0 23.078-4.702 31.378-13.061 29.527-27.168 74.957-27.168 104.492 0 8.286 8.359 19.558 13.061 31.33 13.061 11.763 0 23.044-4.702 31.33-13.061 7.985-7.045 17.176-12.604 27.136-16.4l-68.867-137.724h-146.522l-68.842 137.708c9.966 3.804 19.176 9.363 27.184 16.416zM300.933 673.704c-9.241 0-16.718 7.486-16.718 16.718s7.477 16.718 16.718 16.718h167.186c9.233 0 16.718-7.486 16.718-16.718s-7.486-16.718-16.718-16.718h-167.186zM735.614 21.684c0-27.698-22.459-50.157-50.157-50.157h-601.865c-27.706 0-50.156 22.459-50.156 50.157v300.933c0.188 175.355 142.295 317.455 317.651 317.651h66.876c175.346-0.196 317.455-142.296 317.651-317.651v-300.933zM272.386 200.698l200.631 200.62 23.64-23.64-200.62-200.631-23.65 23.65zM401.243 222.306c0 27.698 22.451 50.155 50.157 50.155 27.698 0 50.155-22.457 50.155-50.155s-22.457-50.155-50.155-50.155c-27.707 0-50.157 22.457-50.157 50.155zM434.682 222.306c0-9.233 7.477-16.718 16.718-16.718 9.233 0 16.718 7.486 16.718 16.718s-7.486 16.718-16.718 16.718c-9.241 0-16.718-7.486-16.718-16.718zM317.651 305.898c27.698 0 50.155 22.457 50.155 50.155s-22.457 50.155-50.155 50.155c-27.707 0-50.155-22.457-50.155-50.155s22.449-50.155 50.155-50.155zM317.651 372.772c9.233 0 16.718-7.486 16.718-16.718s-7.486-16.718-16.718-16.718c-9.241 0-16.718 7.486-16.718 16.718s7.477 16.718 16.718 16.718zM150.467 289.178c0 129.266 104.785 234.059 234.060 234.059 129.208-0.138 233.919-104.849 234.057-234.059 0-129.266-104.793-234.057-234.057-234.057-129.275 0-234.060 104.791-234.060 234.057zM183.904 289.178c0-110.801 89.822-200.62 200.623-200.62 110.742 0.121 200.499 89.87 200.62 200.62 0 110.801-89.83 200.622-200.62 200.622-110.801 0-200.623-89.822-200.623-200.622z" />
<glyph unicode="&#xe956;" glyph-name="add" d="M968.533 520.533h-384v384c0 17.067-25.6 55.467-72.533 55.467s-72.533-38.4-72.533-55.467v-384h-384c-17.067 0-55.467-25.6-55.467-72.533s38.4-72.533 55.467-72.533h384v-384c0-17.067 25.6-55.467 72.533-55.467s72.533 38.4 72.533 55.467v384h384c17.067 0 55.467 25.6 55.467 72.533s-38.4 72.533-55.467 72.533z" />
<glyph unicode="&#xe957;" glyph-name="alert" d="M1015.467 106.667l-448 746.667c-12.8 17.067-34.133 29.867-55.467 29.867s-42.667-12.8-55.467-29.867l-448-746.667c-12.8-21.333-12.8-42.667 0-64s34.133-29.867 55.467-29.867h900.267c21.333 0 42.667 12.8 55.467 29.867 8.533 21.333 8.533 46.933-4.267 64zM512 627.2c25.6 0 46.933-12.8 46.933-38.4 0-76.8-8.533-192-8.533-268.8 0-21.333-21.333-29.867-38.4-29.867-21.333 0-38.4 8.533-38.4 29.867 0 76.8-8.533 192-8.533 268.8 0 21.333 21.333 38.4 46.933 38.4zM512 136.533c-29.867 0-51.2 25.6-51.2 51.2 0 29.867 21.333 51.2 51.2 51.2 25.6 0 51.2-21.333 51.2-51.2 0-25.6-21.333-51.2-51.2-51.2z" />
<glyph unicode="&#xe958;" glyph-name="arrow-down" d="M512 153.6c-17.067 0-38.4 8.533-51.2 21.333l-439.467 439.467c-29.867 29.867-29.867 72.533 0 102.4 25.6 29.867 72.533 29.867 102.4 0l388.267-384 388.267 388.267c29.867 29.867 72.533 29.867 102.4 0s29.867-72.533 0-102.4l-439.467-439.467c-12.8-17.067-34.133-21.333-51.2-25.6z" />
<glyph unicode="&#xe959;" glyph-name="arrow-left" d="M217.6 448c0 17.067 8.533 38.4 21.333 51.2l439.467 439.467c29.867 29.867 72.533 29.867 102.4 0 29.867-25.6 29.867-72.533 0-102.4l-384-388.267 388.267-388.267c29.867-29.867 29.867-72.533 0-102.4s-72.533-29.867-102.4 0l-439.467 439.467c-17.067 12.8-21.333 34.133-25.6 51.2z" />
<glyph unicode="&#xe95a;" glyph-name="arrow-pointer" d="M849.067 315.733l-640 640c-8.533 4.267-17.067 4.267-25.6 4.267s-12.8-12.8-12.8-21.333v-938.667c0-8.533 4.267-17.067 12.8-21.333s17.067 0 25.6 8.533l170.667 209.067 115.2-247.467c4.267-8.533 12.8-12.8 21.333-12.8h8.533l149.333 64 12.8 12.8v17.067l-119.467 247.467h264.533c8.533 0 17.067 4.267 21.333 12.8 0 8.533 0 17.067-4.267 25.6z" />
<glyph unicode="&#xe95b;" glyph-name="arrow-right" d="M780.8 396.8l-439.467-439.467c-29.867-29.867-72.533-29.867-102.4 0s-29.867 72.533 0 102.4l388.267 388.267-384 388.267c-29.867 29.867-29.867 76.8 0 102.4 29.867 29.867 72.533 29.867 102.4 0l439.467-439.467c12.8-12.8 21.333-34.133 21.333-51.2-4.267-17.067-8.533-38.4-25.6-51.2z" />
<glyph unicode="&#xe95c;" glyph-name="arrow-up" d="M563.2 716.8l439.467-439.467c29.867-29.867 29.867-72.533 0-102.4s-72.533-29.867-102.4 0l-388.267 388.267-388.267-384c-29.867-29.867-76.8-29.867-102.4 0-29.867 29.867-29.867 72.533 0 102.4l439.467 439.467c12.8 12.8 34.133 21.333 51.2 21.333 17.067-4.267 38.4-8.533 51.2-25.6z" />
<glyph unicode="&#xe95d;" glyph-name="attach" d="M281.6-64c-68.267 0-132.267 25.6-183.467 76.8s-76.8 110.933-76.8 179.2 25.6 132.267 76.8 183.467l529.067 529.067c76.8 76.8 192 72.533 273.067-8.533s85.333-200.533 8.533-273.067l-494.933-499.2c-46.933-46.933-123.733-46.933-170.667 0s-46.933 123.733 0 170.667l337.067 337.067c12.8 12.8 29.867 12.8 42.667 0s12.8-29.867 0-42.667l-337.067-337.067c-25.6-25.6-25.6-64 0-89.6s64-25.6 89.6 0l494.933 503.467c51.2 51.2 46.933 136.533-8.533 192s-140.8 59.733-192 8.533l-529.067-533.333c-38.4-38.4-59.733-85.333-59.733-140.8 0-51.2 21.333-102.4 59.733-140.8s85.333-59.733 140.8-59.733c51.2 0 102.4 21.333 140.8 59.733l529.067 533.333c12.8 12.8 29.867 12.8 42.667 0s12.8-29.867 0-42.667l-533.333-529.067c-46.933-51.2-110.933-76.8-179.2-76.8z" />
<glyph unicode="&#xe95e;" glyph-name="bag" d="M921.6 72.533l-59.733 665.6c0 12.8-12.8 21.333-25.6 21.333h-123.733c0 110.933-89.6 200.533-200.533 200.533s-200.533-89.6-200.533-200.533h-123.733c-12.8 0-25.6-8.533-25.6-21.333l-59.733-665.6v-4.267c0-72.533 68.267-132.267 153.6-132.267h512c85.333 0 153.6 59.733 153.6 136.533zM512 908.8c81.067 0 149.333-68.267 149.333-149.333h-298.667c0 81.067 68.267 149.333 149.333 149.333zM768-12.8h-512c-55.467 0-98.133 38.4-102.4 81.067l55.467 640h102.4v-89.6c0-12.8 12.8-25.6 25.6-25.6s25.6 12.8 25.6 25.6v89.6h298.667v-89.6c0-12.8 12.8-25.6 25.6-25.6s25.6 12.8 25.6 25.6v89.6h102.4l55.467-640c0-42.667-46.933-81.067-102.4-81.067z" />
<glyph unicode="&#xe95f;" glyph-name="behance" d="M409.6 413.867c-12.8 8.533-29.867 12.8-51.2 12.8h-106.667v-119.467h102.4c8.533 0 17.067 0 25.6 4.267 8.533 0 17.067 4.267 21.333 8.533 8.533 4.267 12.8 8.533 17.067 17.067s4.267 17.067 4.267 29.867c4.267 21.333 0 38.4-12.8 46.933zM392.533 507.733c12.8 8.533 17.067 21.333 17.067 38.4 0 8.533 0 17.067-4.267 25.6-4.267 4.267-8.533 12.8-17.067 12.8-4.267 4.267-12.8 8.533-21.333 8.533-8.533 4.267-17.067 4.267-25.6 4.267h-89.6v-102.4h98.133c17.067 0 29.867 4.267 42.667 12.8zM0 960v-1024h1024v1024h-1024zM618.667 640h174.933v-42.667h-174.933v42.667zM512 302.933c-8.533-17.067-21.333-29.867-34.133-38.4s-29.867-17.067-51.2-21.333c-17.067-8.533-38.4-8.533-59.733-8.533h-213.333v435.2h204.8c21.333 0 38.4 0 55.467-4.267s29.867-8.533 42.667-17.067c12.8-8.533 21.333-21.333 29.867-34.133s8.533-29.867 8.533-51.2-4.267-38.4-17.067-55.467c-8.533-12.8-25.6-25.6-42.667-34.133 25.6-8.533 46.933-21.333 59.733-42.667s21.333-42.667 21.333-68.267c8.533-25.6 4.267-42.667-4.267-59.733zM866.133 371.2h-226.133c0-25.6 8.533-46.933 21.333-59.733s29.867-17.067 55.467-17.067c17.067 0 34.133 4.267 46.933 12.8s21.333 17.067 21.333 29.867h76.8c-12.8-38.4-29.867-64-55.467-81.067s-55.467-25.6-89.6-25.6c-25.6 0-46.933 4.267-68.267 12.8s-38.4 21.333-51.2 34.133c-12.8 12.8-25.6 34.133-34.133 51.2-8.533 21.333-12.8 42.667-12.8 68.267s4.267 46.933 12.8 64c8.533 21.333 17.067 38.4 34.133 51.2 12.8 12.8 29.867 25.6 51.2 34.133s42.667 12.8 64 12.8c25.6 0 51.2-4.267 68.267-17.067 21.333-8.533 38.4-25.6 51.2-42.667s21.333-38.4 29.867-59.733c4.267-21.333 4.267-42.667 4.267-68.267zM708.267 494.933c-12.8 0-25.6-4.267-34.133-8.533s-17.067-8.533-21.333-17.067c-4.267-8.533-8.533-12.8-12.8-21.333v-21.333h140.8c0 21.333-8.533 38.4-21.333 51.2-8.533 8.533-29.867 17.067-51.2 17.067z" />
<glyph unicode="&#xe960;" glyph-name="bell" d="M392.533 59.733c0-68.267 55.467-123.733 119.467-123.733s119.467 55.467 119.467 119.467h-238.933zM900.267 209.067l-110.933 162.133v200.533c0 136.533-98.133 247.467-221.867 273.067v59.733c0 29.867-25.6 55.467-55.467 55.467s-55.467-25.6-55.467-55.467v-59.733c-128-25.6-221.867-140.8-221.867-273.067v-200.533l-110.933-162.133c-12.8-17.067-12.8-38.4-4.267-55.467s29.867-29.867 46.933-29.867h682.667c21.333 0 38.4 12.8 46.933 29.867 17.067 17.067 17.067 38.4 4.267 55.467z" />
<glyph unicode="&#xe961;" glyph-name="book" d="M153.6 960h-102.4c-29.867 0-51.2-21.333-51.2-51.2v-921.6c0-29.867 21.333-51.2 51.2-51.2h102.4v1024zM921.6 960h-68.267v-153.6l-102.4 68.267-102.4-68.267v153.6h-443.733v-1024h716.8c55.467 0 102.4 46.933 102.4 102.4v819.2c0 55.467-46.933 102.4-102.4 102.4zM648.533 192h-290.133v102.4h290.133v-102.4zM750.933 396.8h-392.533v102.4h392.533v-102.4zM853.333 601.6h-494.933v102.4h494.933v-102.4z" />
</font>
</defs>
</svg>
